<svg width="54" height="54" viewBox="0 0 54 54" fill="none" xmlns="http://www.w3.org/2000/svg">
<g filter="url(#filter0_d)">
<circle cx="27" cy="25" r="25" fill="#4B68CE"/>
<path d="M24.1595 38.8439L24.6685 38.6357C24.6014 38.4714 24.4591 38.3497 24.2864 38.3087C24.1137 38.2677 23.9319 38.3126 23.7981 38.4292L24.1595 38.8439ZM29.0714 43.7635L28.9431 43.2287L29.0714 43.7635ZM18.6363 42.0844L18.731 41.5426L18.6363 42.0844ZM19.9308 31.5197L20.4183 31.7743C20.5255 31.569 20.4926 31.3185 20.3361 31.1479C20.1795 30.9772 19.9328 30.9229 19.7191 31.012L19.9308 31.5197ZM9.62238 32.2803L10.1043 32.0153L9.62238 32.2803ZM13.0693 26.243L13.4046 26.679C13.5453 26.5708 13.6251 26.4014 13.619 26.2241C13.6129 26.0467 13.5215 25.8832 13.3737 25.785L13.0693 26.243ZM8.48453 21.7725L7.93698 21.8243L7.93698 21.8243L8.48453 21.7725ZM17.2164 19.953L17.1644 20.5005C17.3834 20.5213 17.5937 20.4096 17.6991 20.2165C17.8045 20.0235 17.7847 19.7862 17.6489 19.6132L17.2164 19.953ZM13.8205 12.0099L13.3944 11.6622L13.8205 12.0099ZM20.7092 12.9457L20.4305 13.4198C20.5835 13.5097 20.7705 13.5203 20.9326 13.4482C21.0948 13.3762 21.2122 13.2303 21.248 13.0564L20.7092 12.9457ZM23.1381 7.02053L22.885 6.53223L23.1381 7.02053ZM28.186 14.7552L27.6558 14.9013C27.7158 15.119 27.9026 15.2778 28.1271 15.302C28.3515 15.3262 28.568 15.2107 28.6729 15.0109L28.186 14.7552ZM34.5581 8.09903L34.3961 8.62463L34.3961 8.62463L34.5581 8.09903ZM36.2798 14.8344L35.7357 14.7543C35.7098 14.9299 35.7703 15.1071 35.898 15.2303C36.0258 15.3535 36.2051 15.4075 36.3796 15.3753L36.2798 14.8344ZM42.6834 14.8584L42.326 15.2765L42.326 15.2765L42.6834 14.8584ZM36.0293 23.3888L35.7458 22.9175C35.5503 23.035 35.4477 23.261 35.4878 23.4855C35.5279 23.71 35.7024 23.8864 35.9265 23.9291L36.0293 23.3888ZM44.9789 28.3369L45.5274 28.3766L44.9789 28.3369ZM38.8024 31.5276L38.7583 30.9794C38.5814 30.9937 38.4222 31.0924 38.3309 31.2446C38.2395 31.3967 38.2272 31.5836 38.2978 31.7464L38.8024 31.5276ZM40.2176 37.7729L39.7299 37.5186L40.2176 37.7729ZM31.0907 33.8636L31.4602 33.4562C31.2908 33.3026 31.044 33.2698 30.8403 33.3739C30.6367 33.478 30.5188 33.6973 30.5441 33.9245L31.0907 33.8636ZM23.6504 39.052C24.1677 40.3172 25.1862 41.6697 26.197 42.6704C26.7046 43.1729 27.2292 43.6056 27.711 43.9004C27.9517 44.0476 28.1959 44.1693 28.4329 44.2447C28.6635 44.318 28.9332 44.3622 29.1996 44.2983L28.9431 43.2287C28.9482 43.2274 28.8984 43.2384 28.7663 43.1964C28.6405 43.1564 28.4788 43.0806 28.2851 42.9621C27.8982 42.7254 27.4404 42.3534 26.9709 41.8887C26.0275 40.9547 25.1127 39.7221 24.6685 38.6357L23.6504 39.052ZM18.5417 42.6262C18.8435 42.6789 19.1609 42.6317 19.4527 42.5504C19.7511 42.4674 20.0652 42.3366 20.3777 42.1817C21.0026 41.872 21.6725 41.4404 22.279 41.0118C22.8883 40.5812 23.4478 40.1436 23.8541 39.8145C24.0575 39.6497 24.2233 39.5115 24.3386 39.4141C24.3963 39.3654 24.4413 39.3269 24.4722 39.3004C24.4877 39.2872 24.4996 39.2769 24.5077 39.2698C24.5118 39.2663 24.515 39.2636 24.5172 39.2617C24.5182 39.2607 24.5191 39.26 24.5197 39.2594C24.52 39.2592 24.5203 39.259 24.5204 39.2588C24.5205 39.2587 24.5206 39.2587 24.5207 39.2586C24.5207 39.2585 24.5208 39.2585 24.1595 38.8439C23.7981 38.4292 23.7981 38.4292 23.7982 38.4292C23.7981 38.4292 23.7981 38.4292 23.7981 38.4292C23.798 38.4293 23.7979 38.4294 23.7977 38.4295C23.7974 38.4298 23.7968 38.4304 23.7959 38.4311C23.7942 38.4326 23.7916 38.4349 23.788 38.438C23.7809 38.4441 23.77 38.4535 23.7557 38.4658C23.7269 38.4905 23.6842 38.527 23.629 38.5736C23.5186 38.6668 23.3586 38.8002 23.1616 38.9598C22.7672 39.2793 22.2277 39.7011 21.6442 40.1135C21.0578 40.5278 20.4408 40.9228 19.8893 41.1961C19.6135 41.3327 19.3669 41.4325 19.1577 41.4907C18.942 41.5508 18.805 41.5556 18.731 41.5426L18.5417 42.6262ZM19.4432 31.2651C18.216 33.615 17.6408 36.292 17.4906 38.4018C17.4156 39.4562 17.4449 40.3926 17.5626 41.0927C17.6208 41.4392 17.7054 41.7571 17.8273 42.0087C17.9345 42.2301 18.1479 42.5574 18.5417 42.6262L18.731 41.5426C18.8875 41.57 18.8892 41.6778 18.8172 41.5291C18.7598 41.4106 18.6973 41.2077 18.6474 40.9104C18.5486 40.3228 18.5167 39.4789 18.5878 38.4798C18.73 36.4826 19.2766 33.9603 20.4183 31.7743L19.4432 31.2651ZM9.14044 32.5453C9.22651 32.7018 9.35736 32.8004 9.45039 32.8587C9.55204 32.9224 9.66675 32.9737 9.78188 33.0162C10.013 33.1015 10.3042 33.1723 10.6337 33.2289C11.2964 33.3427 12.1778 33.4099 13.1839 33.3965C15.1941 33.3698 17.7612 33.0204 20.1425 32.0273L19.7191 31.012C17.5005 31.9373 15.08 32.2712 13.1692 32.2966C12.2148 32.3093 11.4025 32.2448 10.8199 32.1448C10.5267 32.0944 10.3074 32.0376 10.1627 31.9843C10.09 31.9574 10.0506 31.9367 10.0346 31.9267C10.0101 31.9113 10.0599 31.9345 10.1043 32.0153L9.14044 32.5453ZM12.734 25.807C11.6505 26.6403 10.6151 27.98 9.91714 29.2192C9.56659 29.8416 9.28786 30.4618 9.13087 31.0045C9.05246 31.2754 8.99967 31.5432 8.9896 31.7917C8.97981 32.0334 9.0084 32.3052 9.14044 32.5453L10.1043 32.0153C10.1068 32.0199 10.0831 31.9747 10.0887 31.8362C10.094 31.7043 10.1244 31.5283 10.1875 31.3102C10.3136 30.8745 10.5514 30.3347 10.8756 29.7591C11.527 28.6024 12.4742 27.3945 13.4046 26.679L12.734 25.807ZM7.93698 21.8243C7.96587 22.1293 8.09533 22.423 8.2508 22.683C8.40975 22.9488 8.6189 23.2171 8.85083 23.4776C9.31464 23.9985 9.9079 24.5305 10.4815 25.0022C11.0578 25.4761 11.6277 25.9001 12.0525 26.205C12.2652 26.3576 12.4423 26.481 12.5666 26.5665C12.6288 26.6092 12.6779 26.6425 12.7116 26.6653C12.7285 26.6767 12.7415 26.6855 12.7505 26.6915C12.755 26.6945 12.7584 26.6968 12.7609 26.6984C12.7621 26.6992 12.763 26.6998 12.7637 26.7003C12.764 26.7005 12.7643 26.7007 12.7645 26.7008C12.7646 26.7009 12.7647 26.701 12.7647 26.701C12.7648 26.7011 12.7649 26.7011 13.0693 26.243C13.3737 25.785 13.3738 25.785 13.3738 25.785C13.3738 25.785 13.3738 25.785 13.3737 25.785C13.3737 25.7849 13.3735 25.7848 13.3733 25.7847C13.3729 25.7844 13.3723 25.784 13.3713 25.7834C13.3695 25.7821 13.3666 25.7802 13.3626 25.7775C13.3548 25.7723 13.3429 25.7643 13.3272 25.7537C13.2958 25.7325 13.2493 25.7009 13.1898 25.66C13.0707 25.5782 12.8997 25.4591 12.6939 25.3113C12.2814 25.0153 11.7321 24.6065 11.1802 24.1526C10.6256 23.6966 10.0817 23.2059 9.67238 22.7461C9.46774 22.5163 9.30633 22.3048 9.19488 22.1184C9.07996 21.9262 9.03917 21.7954 9.03209 21.7206L7.93698 21.8243ZM17.2683 19.4054C14.9721 19.1877 12.7071 19.4379 11.0177 19.8531C10.1753 20.0601 9.45342 20.3137 8.9341 20.5844C8.67714 20.7183 8.44291 20.8702 8.26805 21.0423C8.10704 21.2009 7.90345 21.4702 7.93698 21.8243L9.03209 21.7206C9.0456 21.8633 8.96059 21.9042 9.03981 21.8262C9.10518 21.7618 9.23286 21.6691 9.44253 21.5598C9.85647 21.3441 10.4868 21.1163 11.2802 20.9213C12.8625 20.5324 15.0034 20.2956 17.1644 20.5005L17.2683 19.4054ZM13.3944 11.6622C13.2936 11.7858 13.2501 11.9238 13.2285 12.0228C13.2056 12.1285 13.1974 12.2387 13.1967 12.344C13.1954 12.5548 13.2238 12.8034 13.2734 13.0728C13.3731 13.615 13.5705 14.3075 13.8606 15.0804C14.4412 16.627 15.412 18.5463 16.7838 20.2927L17.6489 19.6132C16.3578 17.9696 15.4383 16.1533 14.8905 14.6938C14.6164 13.9636 14.4401 13.3355 14.3552 12.8739C14.3125 12.6413 14.296 12.4671 14.2967 12.3512C14.2971 12.2932 14.3018 12.264 14.3035 12.2564C14.3066 12.2421 14.2994 12.2929 14.2467 12.3575L13.3944 11.6622ZM20.988 12.4715C19.8096 11.7788 18.1798 11.3203 16.7693 11.1371C16.061 11.0451 15.3815 11.0188 14.8196 11.0764C14.5389 11.1052 14.2709 11.1565 14.0367 11.2402C13.8089 11.3216 13.5676 11.4499 13.3944 11.6622L14.2467 12.3575C14.2434 12.3616 14.2764 12.3227 14.407 12.276C14.5312 12.2316 14.7058 12.1938 14.9317 12.1707C15.3829 12.1245 15.9725 12.1428 16.6276 12.2279C17.944 12.399 19.4187 12.825 20.4305 13.4198L20.988 12.4715ZM22.885 6.53223C22.613 6.67321 22.3891 6.90321 22.2062 7.14472C22.0193 7.39162 21.8488 7.68602 21.6941 7.99861C21.3847 8.62373 21.1135 9.37302 20.8909 10.0815C20.6672 10.7934 20.4875 11.4805 20.3638 11.9885C20.3019 12.2429 20.2538 12.4533 20.2211 12.6007C20.2048 12.6743 20.1922 12.7323 20.1837 12.7721C20.1795 12.792 20.1762 12.8074 20.174 12.8179C20.1729 12.8232 20.1721 12.8273 20.1715 12.8301C20.1712 12.8316 20.171 12.8327 20.1708 12.8335C20.1707 12.8338 20.1707 12.8342 20.1706 12.8344C20.1706 12.8345 20.1706 12.8346 20.1706 12.8347C20.1705 12.8348 20.1705 12.8349 20.7092 12.9457C21.248 13.0564 21.248 13.0565 21.248 13.0565C21.248 13.0565 21.248 13.0565 21.248 13.0564C21.248 13.0564 21.248 13.0562 21.2481 13.056C21.2482 13.0555 21.2483 13.0547 21.2486 13.0536C21.249 13.0514 21.2497 13.048 21.2507 13.0434C21.2526 13.0341 21.2556 13.0201 21.2595 13.0016C21.2674 12.9646 21.2793 12.9096 21.295 12.8391C21.3263 12.698 21.3727 12.4949 21.4326 12.2487C21.5527 11.7554 21.7261 11.093 21.9403 10.4113C22.1555 9.72631 22.4069 9.0382 22.6799 8.48653C22.8164 8.21072 22.9521 7.98188 23.0832 7.80875C23.2184 7.63022 23.3245 7.5434 23.3911 7.50884L22.885 6.53223ZM28.7162 14.609C28.0858 12.3225 26.9866 10.2314 25.942 8.75682C25.4209 8.02124 24.9 7.42006 24.4416 7.0215C24.2148 6.8243 23.9807 6.65676 23.7513 6.55405C23.5418 6.46025 23.208 6.36478 22.885 6.53223L23.3911 7.50884C23.2612 7.57619 23.1918 7.50878 23.3019 7.55804C23.392 7.59839 23.5327 7.6889 23.7199 7.85161C24.0893 8.17286 24.5529 8.69889 25.0444 9.39269C26.025 10.7769 27.0635 12.7533 27.6558 14.9013L28.7162 14.609ZM34.7202 7.57344C34.5615 7.52452 34.411 7.53887 34.3085 7.55801C34.1983 7.57859 34.0888 7.61543 33.9862 7.65784C33.7806 7.7428 33.5481 7.873 33.3021 8.03358C32.8071 8.3568 32.2019 8.83975 31.5582 9.44833C30.2708 10.6656 28.7891 12.4237 27.699 14.4995L28.6729 15.0109C29.6957 13.0633 31.0957 11.3995 32.314 10.2476C32.9232 9.67165 33.4768 9.23322 33.9035 8.95465C34.1184 8.81434 34.2875 8.72355 34.4063 8.67447C34.4659 8.64985 34.4993 8.6414 34.5104 8.63932C34.5293 8.63579 34.4787 8.6501 34.3961 8.62463L34.7202 7.57344ZM36.824 14.9146C37.0231 13.5622 36.8354 11.8796 36.4751 10.5036C36.2942 9.81262 36.0631 9.1731 35.7986 8.674C35.6665 8.42475 35.5182 8.19565 35.3527 8.0101C35.1916 7.82954 34.982 7.65415 34.7202 7.57344L34.3961 8.62463C34.3911 8.62309 34.4396 8.63902 34.5319 8.74246C34.6198 8.84091 34.7203 8.9885 34.8267 9.18917C35.0391 9.58992 35.2437 10.1432 35.411 10.7822C35.7472 12.0665 35.9067 13.5932 35.7357 14.7543L36.824 14.9146ZM43.0408 14.4404C42.8079 14.2413 42.5106 14.1203 42.2181 14.0416C41.919 13.9611 41.5822 13.9138 41.2343 13.8879C40.5388 13.8361 39.7425 13.8664 39.0022 13.9264C38.2585 13.9866 37.5542 14.0783 37.037 14.1546C36.778 14.1929 36.5649 14.2274 36.4161 14.2524C36.3417 14.265 36.2833 14.2751 36.2432 14.2822C36.2231 14.2858 36.2077 14.2885 36.197 14.2905C36.1917 14.2914 36.1876 14.2922 36.1848 14.2927C36.1834 14.2929 36.1822 14.2932 36.1815 14.2933C36.1811 14.2934 36.1807 14.2934 36.1805 14.2935C36.1804 14.2935 36.1803 14.2935 36.1802 14.2935C36.1801 14.2935 36.18 14.2936 36.2798 14.8344C36.3796 15.3753 36.3796 15.3753 36.3796 15.3753C36.3796 15.3753 36.3796 15.3753 36.3796 15.3753C36.3797 15.3753 36.3799 15.3753 36.3801 15.3752C36.3806 15.3751 36.3814 15.375 36.3825 15.3748C36.3847 15.3744 36.3881 15.3737 36.3928 15.3729C36.4021 15.3712 36.4162 15.3687 36.4348 15.3654C36.4721 15.3588 36.5275 15.3492 36.5987 15.3372C36.7412 15.3132 36.9469 15.2798 37.1976 15.2429C37.6998 15.1687 38.3789 15.0805 39.0911 15.0228C39.8067 14.9648 40.5389 14.9392 41.1527 14.9849C41.4596 15.0077 41.7226 15.0474 41.9323 15.1038C42.1486 15.162 42.2689 15.2277 42.326 15.2765L43.0408 14.4404ZM36.3128 23.8601C38.6134 22.4761 40.5155 20.4412 41.7494 18.6752C42.3662 17.7924 42.8298 16.9571 43.0929 16.2833C43.2231 15.9498 43.3151 15.6284 43.3402 15.3463C43.3622 15.099 43.348 14.703 43.0408 14.4404L42.326 15.2765C42.2041 15.1723 42.2597 15.0783 42.2445 15.2487C42.2325 15.3841 42.1803 15.596 42.0682 15.8833C41.8465 16.4512 41.4323 17.2084 40.8476 18.0452C39.6785 19.7186 37.8828 21.6319 35.7458 22.9175L36.3128 23.8601ZM45.5274 28.3766C45.5403 28.1997 45.4849 28.0469 45.439 27.9477C45.389 27.8395 45.3214 27.7348 45.2489 27.6373C45.1032 27.4416 44.9001 27.2258 44.6579 27.0014C44.1706 26.55 43.4773 26.0195 42.6372 25.4878C40.9586 24.4253 38.6442 23.3265 36.1321 22.8485L35.9265 23.9291C38.2687 24.3748 40.454 25.4078 42.0489 26.4173C42.8457 26.9216 43.4827 27.4122 43.9103 27.8084C44.1255 28.0078 44.276 28.1724 44.3665 28.294C44.412 28.3552 44.4331 28.3932 44.4407 28.4096C44.4525 28.435 44.4237 28.3885 44.4303 28.2971L45.5274 28.3766ZM38.8466 32.0759C40.2091 31.9661 41.8066 31.4052 43.0664 30.745C43.6991 30.4135 44.2704 30.0447 44.6973 29.6748C44.9105 29.49 45.1004 29.2941 45.244 29.0911C45.3838 28.8935 45.5076 28.6499 45.5274 28.3766L44.4303 28.2971C44.4307 28.2918 44.4261 28.3427 44.346 28.4558C44.2698 28.5636 44.1486 28.6947 43.9769 28.8434C43.6341 29.1405 43.141 29.4641 42.5558 29.7707C41.38 30.3868 39.9281 30.8852 38.7583 30.9794L38.8466 32.0759ZM40.7052 38.0273C40.8469 37.7556 40.8981 37.4388 40.909 37.136C40.9202 36.8265 40.8907 36.4876 40.8378 36.1429C40.732 35.4535 40.5236 34.6844 40.2988 33.9765C40.0731 33.2653 39.8255 32.5996 39.6349 32.1127C39.5395 31.8689 39.458 31.6691 39.4002 31.5297C39.3712 31.46 39.3482 31.4054 39.3323 31.3679C39.3243 31.3491 39.3181 31.3347 39.3139 31.3248C39.3118 31.3198 39.3101 31.316 39.309 31.3133C39.3084 31.312 39.3079 31.311 39.3076 31.3102C39.3075 31.3099 39.3073 31.3096 39.3072 31.3093C39.3072 31.3092 39.3071 31.3091 39.3071 31.3091C39.3071 31.309 39.307 31.3089 38.8024 31.5276C38.2978 31.7464 38.2978 31.7464 38.2978 31.7464C38.2978 31.7464 38.2978 31.7464 38.2978 31.7464C38.2978 31.7465 38.2979 31.7466 38.298 31.7469C38.2982 31.7473 38.2985 31.748 38.2989 31.7491C38.2998 31.7511 38.3012 31.7543 38.3031 31.7587C38.3068 31.7674 38.3124 31.7805 38.3198 31.798C38.3346 31.8328 38.3565 31.8846 38.3842 31.9513C38.4396 32.0848 38.5182 32.2777 38.6106 32.5137C38.7956 32.9864 39.0342 33.6283 39.2504 34.3094C39.4677 34.9937 39.6572 35.7013 39.7505 36.3098C39.7972 36.6139 39.8176 36.8792 39.8097 37.0962C39.8016 37.32 39.7647 37.452 39.7299 37.5186L40.7052 38.0273ZM30.7212 34.2711C32.5814 35.958 34.8202 37.1713 36.6513 37.8618C37.5655 38.2065 38.4 38.4292 39.0517 38.5097C39.3742 38.5495 39.6816 38.5584 39.9428 38.5144C40.1771 38.4749 40.5288 38.3657 40.7053 38.0273L39.7299 37.5186C39.8005 37.3832 39.9001 37.4061 39.7601 37.4297C39.6471 37.4487 39.4582 37.4515 39.1865 37.418C38.6497 37.3517 37.9039 37.1585 37.0394 36.8325C35.3129 36.1815 33.2 35.034 31.4602 33.4562L30.7212 34.2711ZM29.1996 44.2983C29.3708 44.2573 29.4989 44.1595 29.5792 44.0863C29.6667 44.0067 29.7457 43.9116 29.8161 43.8142C29.9574 43.6186 30.1002 43.3632 30.2394 43.0688C30.5194 42.4765 30.8125 41.6672 31.0639 40.7191C31.5664 38.8243 31.9176 36.3188 31.6373 33.8027L30.5441 33.9245C30.8057 36.2724 30.4779 38.6376 30.0007 40.4371C29.7622 41.3361 29.4902 42.0799 29.2449 42.5986C29.1214 42.8598 29.0115 43.0494 28.9245 43.17C28.8807 43.2306 28.8515 43.2613 28.8387 43.2729C28.8189 43.291 28.8546 43.2499 28.9431 43.2287L29.1996 44.2983Z" fill="#F0CCCC"/>
<g filter="url(#filter1_f)">
<mask id="path-3-inside-1" fill="white">
<path fill-rule="evenodd" clip-rule="evenodd" d="M29.0714 43.7635C28.0259 44.0142 25.121 41.1954 24.1595 38.8439C24.1595 38.8439 20.1395 42.3471 18.6363 42.0844C17.687 41.9186 17.5619 36.0556 19.9308 31.5197C15.3309 33.438 9.95557 32.8862 9.62238 32.2803C9.10434 31.3382 11.0554 27.7918 13.0693 26.243C13.0693 26.243 8.6284 23.2916 8.48453 21.7725C8.40448 20.9272 12.7591 19.5302 17.2164 19.953C14.5535 16.5629 13.4357 12.4817 13.8205 12.0099C14.5001 11.1768 18.5191 11.6581 20.7092 12.9457C20.7092 12.9457 21.7833 7.72272 23.1381 7.02053C23.9105 6.62017 26.9634 10.3206 28.186 14.7552C30.2988 10.7318 33.9495 7.91141 34.5581 8.09903C35.5856 8.41572 36.6499 12.3209 36.2798 14.8344C36.2798 14.8344 41.5235 13.8669 42.6834 14.8584C43.4248 15.4923 40.467 20.7193 36.0293 23.3888C40.8836 24.3125 45.0285 27.6525 44.9789 28.3369C44.9011 29.4091 41.3348 31.3236 38.8024 31.5276C38.8024 31.5276 40.9233 36.42 40.2176 37.7729C39.794 38.5851 34.6907 37.1284 31.0907 33.8636C31.6326 38.7276 29.7328 43.6049 29.0714 43.7635Z"/>
</mask>
<path d="M24.1595 38.8439L24.8537 38.56L24.4569 37.5898L23.6667 38.2784L24.1595 38.8439ZM29.0714 43.7635L28.8965 43.0342L29.0714 43.7635ZM18.6363 42.0844L18.7654 41.3456L18.6363 42.0844ZM19.9308 31.5197L20.5956 31.8669L21.555 30.0297L19.6421 30.8274L19.9308 31.5197ZM9.62238 32.2803L10.2796 31.9189L10.2796 31.9189L9.62238 32.2803ZM13.0693 26.243L13.5265 26.8376L14.3574 26.1986L13.4844 25.6184L13.0693 26.243ZM8.48453 21.7725L7.73788 21.8432L7.73788 21.8432L8.48453 21.7725ZM17.2164 19.953L17.1455 20.6996L18.8862 20.8647L17.8062 19.4897L17.2164 19.953ZM13.8205 12.0099L13.2394 11.5358L13.2394 11.5358L13.8205 12.0099ZM20.7092 12.9457L20.3291 13.5922L21.2327 14.1234L21.4439 13.0967L20.7092 12.9457ZM23.1381 7.02053L22.7929 6.35466L22.7929 6.35466L23.1381 7.02053ZM28.186 14.7552L27.463 14.9545L27.9675 16.7844L28.85 15.1039L28.186 14.7552ZM34.5581 8.09903L34.3372 8.81576L34.3372 8.81576L34.5581 8.09903ZM36.2798 14.8344L35.5378 14.7252L35.3851 15.7622L36.4159 15.572L36.2798 14.8344ZM42.6834 14.8584L42.196 15.4285L42.196 15.4285L42.6834 14.8584ZM36.0293 23.3888L35.6427 22.7461L33.9598 23.7584L35.8891 24.1255L36.0293 23.3888ZM44.9789 28.3369L45.7269 28.3911L44.9789 28.3369ZM38.8024 31.5276L38.7422 30.7801L37.6974 30.8642L38.1143 31.826L38.8024 31.5276ZM40.2176 37.7729L39.5526 37.4261L40.2176 37.7729ZM31.0907 33.8636L31.5945 33.3081L30.1258 31.9761L30.3453 33.9467L31.0907 33.8636ZM23.4652 39.1277C23.9959 40.4255 25.0332 41.7997 26.0563 42.8125C26.5708 43.3219 27.1075 43.7657 27.6066 44.071C27.8558 44.2235 28.1151 44.3535 28.3723 44.4353C28.6208 44.5143 28.9304 44.5686 29.2463 44.4928L28.8965 43.0342C28.9509 43.0211 28.9411 43.0421 28.8269 43.0058C28.7214 42.9723 28.5746 42.9048 28.3894 42.7915C28.0198 42.5653 27.5741 42.2044 27.1116 41.7465C26.1804 40.8247 25.2846 39.6138 24.8537 38.56L23.4652 39.1277ZM18.5072 42.8232C18.8505 42.8832 19.2007 42.8282 19.5064 42.7431C19.821 42.6555 20.1473 42.5191 20.4665 42.3609C21.1048 42.0446 21.7842 41.6063 22.3944 41.1751C23.0085 40.7412 23.5716 40.3007 23.9799 39.9699C24.1846 39.8041 24.3514 39.665 24.4676 39.5669C24.5257 39.5179 24.5712 39.479 24.6025 39.4522C24.6182 39.4387 24.6302 39.4283 24.6386 39.4211C24.6428 39.4175 24.646 39.4147 24.6483 39.4127C24.6494 39.4117 24.6503 39.4109 24.651 39.4103C24.6513 39.4101 24.6516 39.4098 24.6518 39.4096C24.6519 39.4096 24.652 39.4095 24.652 39.4094C24.6521 39.4093 24.6522 39.4093 24.1595 38.8439C23.6667 38.2784 23.6668 38.2784 23.6668 38.2784C23.6668 38.2784 23.6668 38.2784 23.6668 38.2784C23.6667 38.2784 23.6666 38.2785 23.6665 38.2786C23.6662 38.2789 23.6656 38.2794 23.6648 38.2801C23.6632 38.2815 23.6606 38.2837 23.6572 38.2867C23.6502 38.2927 23.6395 38.3019 23.6254 38.3141C23.597 38.3384 23.5547 38.3746 23.5 38.4208C23.3904 38.5133 23.2315 38.6458 23.0358 38.8043C22.6434 39.1222 22.1076 39.5411 21.5287 39.9501C20.946 40.3619 20.3386 40.7502 19.8005 41.0169C19.5314 41.1502 19.2971 41.2443 19.1041 41.2981C18.9022 41.3543 18.798 41.3513 18.7654 41.3456L18.5072 42.8232ZM19.266 31.1725C18.0231 33.5522 17.4427 36.2574 17.2911 38.3876C17.2154 39.452 17.2443 40.4053 17.3654 41.1259C17.4251 41.4813 17.5137 41.8201 17.6473 42.0959C17.761 42.3306 18.0134 42.7369 18.5072 42.8232L18.7654 41.3456C19.022 41.3904 19.0628 41.5773 18.9972 41.4419C18.9515 41.3476 18.8931 41.1657 18.8446 40.8773C18.7493 40.3101 18.7169 39.483 18.7873 38.494C18.928 36.5173 19.4695 34.023 20.5956 31.8669L19.266 31.1725ZM8.96519 32.6417C9.07499 32.8414 9.23868 32.962 9.34416 33.0281C9.4614 33.1016 9.58979 33.1585 9.71263 33.2039C9.95945 33.295 10.2638 33.3683 10.5998 33.426C11.2771 33.5424 12.1711 33.61 13.1866 33.5965C15.2148 33.5695 17.8086 33.2173 20.2194 32.2119L19.6421 30.8274C17.4531 31.7403 15.0592 32.0714 13.1666 32.0966C12.2216 32.1092 11.4218 32.0452 10.8538 31.9477C10.5671 31.8984 10.3609 31.8442 10.232 31.7966C10.2013 31.7853 10.1784 31.7756 10.1622 31.768C10.1456 31.7602 10.1394 31.7563 10.1409 31.7572C10.1416 31.7577 10.1573 31.7674 10.1801 31.7887C10.2023 31.8094 10.2426 31.8516 10.2796 31.9189L8.96519 32.6417ZM12.6121 25.6485C11.5007 26.5032 10.4493 27.8668 9.74288 29.1211C9.38754 29.752 9.10137 30.3868 8.93875 30.9489C8.85757 31.2295 8.80069 31.5139 8.78976 31.7836C8.77921 32.0441 8.80869 32.3571 8.96519 32.6417L10.2796 31.9189C10.3066 31.968 10.2837 31.964 10.2885 31.8443C10.293 31.7336 10.3193 31.5743 10.3797 31.3658C10.5001 30.9495 10.7304 30.4243 11.0498 29.8572C11.6928 28.7156 12.624 27.5316 13.5265 26.8376L12.6121 25.6485ZM7.73788 21.8432C7.77073 22.19 7.91631 22.5133 8.07915 22.7856C8.24674 23.0659 8.46456 23.3445 8.70145 23.6106C9.17518 24.1427 9.77741 24.6822 10.3545 25.1567C10.9353 25.6343 11.5089 26.061 11.9358 26.3674C12.1498 26.521 12.328 26.6452 12.4533 26.7313C12.516 26.7744 12.5655 26.808 12.5997 26.8311C12.6168 26.8426 12.63 26.8515 12.6392 26.8577C12.6438 26.8607 12.6473 26.8631 12.6499 26.8648C12.6511 26.8656 12.6521 26.8663 12.6528 26.8668C12.6532 26.867 12.6535 26.8672 12.6537 26.8674C12.6538 26.8674 12.6539 26.8675 12.654 26.8675C12.6541 26.8676 12.6542 26.8677 13.0693 26.243C13.4844 25.6184 13.4845 25.6184 13.4845 25.6185C13.4845 25.6185 13.4845 25.6185 13.4845 25.6184C13.4845 25.6184 13.4844 25.6183 13.4842 25.6182C13.4838 25.618 13.4832 25.6176 13.4823 25.617C13.4806 25.6158 13.4777 25.6139 13.4739 25.6114C13.4663 25.6063 13.4546 25.5984 13.4391 25.588C13.4082 25.5671 13.3621 25.5358 13.3031 25.4952C13.185 25.414 13.0151 25.2957 12.8105 25.1488C12.4003 24.8544 11.8547 24.4483 11.3072 23.9981C10.7561 23.5449 10.2212 23.0617 9.82175 22.6131C9.62207 22.3889 9.46935 22.1877 9.36653 22.0158C9.25898 21.8359 9.23431 21.7347 9.23119 21.7017L7.73788 21.8432ZM17.2872 19.2063C14.9664 18.9862 12.6788 19.2389 10.97 19.6589C10.1187 19.8681 9.38014 20.1263 8.84165 20.407C8.5761 20.5454 8.3225 20.708 8.12773 20.8998C7.95185 21.073 7.69579 21.3988 7.73788 21.8432L9.2312 21.7017C9.25327 21.9348 9.11578 22.032 9.18013 21.9687C9.2256 21.9239 9.33389 21.842 9.53497 21.7372C9.92975 21.5314 10.5434 21.3083 11.328 21.1155C12.8908 20.7314 15.0091 20.497 17.1455 20.6996L17.2872 19.2063ZM13.2394 11.5358C13.1107 11.6936 13.058 11.8659 13.0331 11.9803C13.0063 12.1038 12.9975 12.2288 12.9968 12.3427C12.9953 12.5708 13.0259 12.8329 13.0767 13.1089C13.179 13.6658 13.3804 14.3701 13.6734 15.1507C14.2599 16.7131 15.2401 18.6511 16.6266 20.4163L17.8062 19.4897C16.5298 17.8648 15.6196 16.0671 15.0777 14.6235C14.8065 13.9011 14.6341 13.2846 14.5519 12.8377C14.5104 12.6118 14.4961 12.4512 14.4967 12.3525C14.497 12.3031 14.5011 12.2886 14.4989 12.2988C14.4986 12.3 14.4823 12.3851 14.4017 12.4839L13.2394 11.5358ZM21.0893 12.2991C19.8807 11.5885 18.2226 11.1242 16.7951 10.9388C16.077 10.8455 15.3812 10.8178 14.7992 10.8775C14.5086 10.9072 14.2236 10.961 13.9694 11.0518C13.7238 11.1396 13.4447 11.2841 13.2394 11.5358L14.4017 12.484C14.3663 12.5273 14.3614 12.5047 14.4743 12.4643C14.5785 12.4271 14.7361 12.3918 14.9521 12.3697C15.3832 12.3255 15.9564 12.3424 16.6018 12.4263C17.9012 12.5951 19.3476 13.0152 20.3291 13.5922L21.0893 12.2991ZM22.7929 6.35466C22.4836 6.51499 22.2383 6.77102 22.0468 7.02398C21.8497 7.28431 21.6728 7.59062 21.5148 7.9099C21.1988 8.54838 20.9241 9.30879 20.7001 10.0216C20.4747 10.7389 20.2938 11.4306 20.1695 11.9412C20.1072 12.1971 20.0588 12.4089 20.0259 12.5573C20.0094 12.6315 19.9967 12.69 19.9881 12.7304C19.9838 12.7505 19.9805 12.7662 19.9783 12.777C19.9771 12.7824 19.9763 12.7866 19.9757 12.7895C19.9754 12.791 19.9751 12.7922 19.9749 12.793C19.9749 12.7934 19.9748 12.7938 19.9747 12.794C19.9747 12.7942 19.9747 12.7943 19.9747 12.7944C19.9746 12.7945 19.9746 12.7946 20.7092 12.9457C21.4439 13.0967 21.4439 13.0968 21.4438 13.0968C21.4439 13.0968 21.4438 13.0968 21.4439 13.0968C21.4439 13.0968 21.4439 13.0966 21.4439 13.0964C21.444 13.096 21.4442 13.0953 21.4444 13.0942C21.4448 13.0922 21.4455 13.0888 21.4464 13.0843C21.4483 13.0753 21.4512 13.0616 21.4551 13.0433C21.4629 13.0068 21.4747 12.9524 21.4902 12.8824C21.5213 12.7425 21.5674 12.5407 21.6269 12.296C21.7464 11.8054 21.9186 11.1474 22.1311 10.4712C22.345 9.79054 22.5928 9.11355 22.8592 8.57525C22.9924 8.30613 23.1217 8.0892 23.2426 7.92948C23.3692 7.76241 23.4538 7.70162 23.4832 7.68641L22.7929 6.35466ZM28.909 14.5558C28.2717 12.2442 27.1615 10.1322 26.1052 8.64121C25.5787 7.89803 25.0474 7.28319 24.5728 6.87057C24.3388 6.6671 24.0878 6.48555 23.833 6.3715C23.6054 6.26961 23.1983 6.14453 22.7929 6.35466L23.4832 7.68641C23.2709 7.79645 23.1282 7.69943 23.2202 7.74059C23.285 7.7696 23.4087 7.84611 23.5886 8.00254C23.942 8.30973 24.3951 8.8221 24.8812 9.5083C25.8502 10.8761 26.8777 12.8316 27.463 14.9545L28.909 14.5558ZM34.7791 7.38231C34.5765 7.31987 34.3895 7.33943 34.2718 7.36141C34.1436 7.38535 34.0203 7.42736 33.9098 7.47299C33.6884 7.56448 33.4444 7.70185 33.1928 7.86612C32.6853 8.19745 32.0708 8.68849 31.4208 9.30301C30.1208 10.5322 28.6243 12.3074 27.522 14.4065L28.85 15.1039C29.8605 13.1796 31.2457 11.5329 32.4514 10.393C33.0543 9.8229 33.5986 9.39257 34.0128 9.12212C34.2221 8.98549 34.3797 8.90186 34.4827 8.85931C34.5344 8.83792 34.554 8.83464 34.5472 8.83592C34.5426 8.83677 34.5228 8.84026 34.491 8.8402C34.4599 8.84015 34.4051 8.83668 34.3372 8.81576L34.7791 7.38231ZM37.0218 14.9437C37.2261 13.5566 37.0332 11.8456 36.6686 10.453C36.4852 9.75252 36.2493 9.09731 35.9753 8.58034C35.8385 8.32225 35.6816 8.07833 35.5019 7.87694C35.3283 7.68236 35.0894 7.47798 34.7791 7.38231L34.3372 8.81576C34.2837 8.79926 34.3029 8.78619 34.3827 8.87562C34.4564 8.95823 34.5483 9.091 34.65 9.28283C34.8529 9.6657 35.0527 10.2033 35.2175 10.8329C35.5494 12.1004 35.7037 13.5988 35.5378 14.7252L37.0218 14.9437ZM43.1707 14.2884C42.9059 14.062 42.5765 13.9309 42.2701 13.8485C41.9548 13.7636 41.6044 13.7149 41.2492 13.6884C40.5388 13.6356 39.7308 13.6667 38.9861 13.727C38.2367 13.7878 37.5277 13.8801 37.0078 13.9568C36.7473 13.9952 36.5328 14.03 36.3829 14.0552C36.3079 14.0678 36.2489 14.0781 36.2083 14.0853C36.188 14.0889 36.1723 14.0917 36.1614 14.0937C36.156 14.0946 36.1518 14.0954 36.1488 14.0959C36.1474 14.0962 36.1462 14.0964 36.1453 14.0966C36.1449 14.0967 36.1446 14.0967 36.1443 14.0968C36.1442 14.0968 36.144 14.0968 36.144 14.0968C36.1438 14.0969 36.1437 14.0969 36.2798 14.8344C36.4159 15.572 36.4159 15.572 36.4158 15.572C36.4158 15.572 36.4158 15.572 36.4158 15.572C36.4159 15.572 36.416 15.572 36.4162 15.5719C36.4166 15.5718 36.4174 15.5717 36.4184 15.5715C36.4205 15.5711 36.4238 15.5705 36.4284 15.5697C36.4374 15.5681 36.4513 15.5656 36.4696 15.5623C36.5064 15.5558 36.5613 15.5463 36.6319 15.5344C36.7733 15.5106 36.9776 15.4775 37.2268 15.4407C37.7263 15.367 38.4007 15.2794 39.1072 15.2222C39.8184 15.1645 40.5389 15.1397 41.1378 15.1843C41.4373 15.2066 41.6869 15.2449 41.8804 15.297C42.0827 15.3514 42.1709 15.407 42.196 15.4285L43.1707 14.2884ZM36.4159 24.0314C38.7463 22.6296 40.6677 20.5726 41.9133 18.7898C42.536 17.8986 43.0086 17.0491 43.2792 16.3561C43.4126 16.0141 43.5119 15.6728 43.5394 15.364C43.5626 15.1028 43.556 14.6177 43.1707 14.2884L42.196 15.4285C41.9961 15.2576 42.0592 15.0745 42.0453 15.231C42.0356 15.3397 41.9908 15.5316 41.8819 15.8106C41.6677 16.3593 41.2625 17.1022 40.6837 17.9307C39.5263 19.5872 37.75 21.4784 35.6427 22.7461L36.4159 24.0314ZM45.7269 28.3911C45.7433 28.1654 45.6726 27.9763 45.6205 27.8637C45.5628 27.7389 45.4868 27.622 45.4093 27.5178C45.2537 27.3087 45.0409 27.0837 44.7938 26.8547C44.2956 26.3932 43.5921 25.8555 42.7442 25.3188C41.0503 24.2467 38.7125 23.1359 36.1695 22.652L35.8891 24.1255C38.2005 24.5654 40.3622 25.5864 41.942 26.5863C42.7309 27.0856 43.3576 27.569 43.7744 27.9551C43.9847 28.1499 44.1256 28.3053 44.206 28.4134C44.2466 28.468 44.2593 28.4939 44.2592 28.4936C44.2587 28.4924 44.2508 28.4756 44.2433 28.4452C44.236 28.4156 44.2253 28.3586 44.2308 28.2826L45.7269 28.3911ZM38.8626 32.2752C40.2602 32.1626 41.8841 31.5904 43.1592 30.9222C43.8006 30.5861 44.386 30.2091 44.8282 29.8259C45.049 29.6346 45.2514 29.4269 45.4073 29.2066C45.5579 28.9937 45.7034 28.7151 45.7269 28.3911L44.2308 28.2826C44.2349 28.2267 44.2519 28.2425 44.1827 28.3403C44.1188 28.4307 44.01 28.5501 43.846 28.6923C43.5185 28.9761 43.0395 29.2914 42.463 29.5935C41.3024 30.2017 39.8771 30.6887 38.7422 30.7801L38.8626 32.2752ZM40.8826 38.1198C41.0437 37.8108 41.0974 37.4604 41.1089 37.1433C41.1207 36.817 41.0895 36.4647 41.0355 36.1125C40.9274 35.4084 40.7156 34.6281 40.4895 33.916C40.2619 33.1993 40.0127 32.5293 39.8212 32.0398C39.7252 31.7946 39.6432 31.5935 39.5849 31.453C39.5557 31.3828 39.5325 31.3276 39.5164 31.2897C39.5083 31.2707 39.502 31.256 39.4977 31.2459C39.4955 31.2408 39.4938 31.2369 39.4926 31.2341C39.492 31.2327 39.4915 31.2316 39.4912 31.2308C39.491 31.2304 39.4909 31.2301 39.4908 31.2299C39.4907 31.2297 39.4907 31.2296 39.4906 31.2295C39.4906 31.2294 39.4905 31.2293 38.8024 31.5276C38.1143 31.826 38.1143 31.8259 38.1143 31.8259C38.1143 31.8259 38.1142 31.8259 38.1143 31.8259C38.1143 31.8259 38.1143 31.826 38.1144 31.8262C38.1146 31.8266 38.1149 31.8273 38.1153 31.8283C38.1161 31.8302 38.1175 31.8333 38.1193 31.8376C38.1229 31.846 38.1285 31.859 38.1358 31.8762C38.1504 31.9105 38.172 31.9618 38.1995 32.028C38.2544 32.1604 38.3326 32.352 38.4244 32.5866C38.6084 33.0568 38.8453 33.6943 39.0598 34.3699C39.2757 35.0499 39.4617 35.7464 39.5529 36.3401C39.5984 36.6369 39.6171 36.8888 39.6099 37.089C39.6023 37.2984 39.5679 37.3968 39.5526 37.4261L40.8826 38.1198ZM30.5869 34.4192C32.469 36.126 34.7306 37.3513 36.5807 38.0489C37.504 38.3971 38.3545 38.6251 39.0272 38.7082C39.3589 38.7491 39.6879 38.7602 39.976 38.7116C40.2275 38.6693 40.6612 38.5443 40.8826 38.1198L39.5526 37.4261C39.6681 37.2046 39.8497 37.2118 39.7269 37.2325C39.6408 37.2469 39.4735 37.2519 39.211 37.2195C38.6951 37.1558 37.9654 36.968 37.1099 36.6454C35.4025 36.0015 33.3125 34.866 31.5945 33.3081L30.5869 34.4192ZM29.2463 44.4928C29.4647 44.4404 29.6225 44.3174 29.7139 44.2342C29.815 44.1422 29.9029 44.0355 29.9782 43.9313C30.1293 43.7221 30.2781 43.4548 30.4202 43.1543C30.7065 42.5486 31.0034 41.7273 31.2572 40.7704C31.7643 38.8582 32.1198 36.3272 31.8361 33.7806L30.3453 33.9467C30.6035 36.264 30.28 38.6036 29.8073 40.3858C29.5713 41.276 29.303 42.0078 29.0641 42.5132C28.9435 42.7683 28.8396 42.9459 28.7623 43.0528C28.7234 43.1067 28.7033 43.1258 28.7041 43.125C28.7054 43.1239 28.7193 43.1112 28.7461 43.0948C28.7721 43.0789 28.823 43.0518 28.8965 43.0342L29.2463 44.4928Z" fill="#E1BFC7" mask="url(#path-3-inside-1)"/>
</g>
<path d="M27.9588 18.1395L27.3948 23.9942L26.7263 23.8908L27.9588 18.1395Z" fill="#FFEEEE"/>
<path d="M22.1665 29.5228L25.875 24.9575L26.3747 25.4135L22.1665 29.5228Z" fill="#FFEEEE"/>
<path d="M33.2875 23.8635L27.5127 24.9803L27.4227 24.3098L33.2875 23.8635Z" fill="#FFEEEE"/>
<path d="M20.121 21.4116L25.5927 23.5694L25.3087 24.1835L20.121 21.4116Z" fill="#FFEEEE"/>
<path d="M29.8439 30.8167L27.2008 25.5622L27.8216 25.2935L29.8439 30.8167Z" fill="#FFEEEE"/>
<g filter="url(#filter2_i)">
<circle cx="26.6103" cy="24.6109" r="1.9014" transform="rotate(-175.851 26.6103 24.6109)" fill="#FFDADA"/>
</g>
</g>
<defs>
<filter id="filter0_d" x="0" y="0" width="54" height="54" filterUnits="userSpaceOnUse" color-interpolation-filters="sRGB">
<feFlood flood-opacity="0" result="BackgroundImageFix"/>
<feColorMatrix in="SourceAlpha" type="matrix" values="0 0 0 0 0 0 0 0 0 0 0 0 0 0 0 0 0 0 127 0" result="hardAlpha"/>
<feOffset dy="2"/>
<feGaussianBlur stdDeviation="1"/>
<feComposite in2="hardAlpha" operator="out"/>
<feColorMatrix type="matrix" values="0 0 0 0 0 0 0 0 0 0 0 0 0 0 0 0 0 0 0.25 0"/>
<feBlend mode="normal" in2="BackgroundImageFix" result="effect1_dropShadow"/>
<feBlend mode="normal" in="SourceGraphic" in2="effect1_dropShadow" result="shape"/>
</filter>
<filter id="filter1_f" x="2" y="1" width="49.4056" height="48.8583" filterUnits="userSpaceOnUse" color-interpolation-filters="sRGB">
<feFlood flood-opacity="0" result="BackgroundImageFix"/>
<feBlend mode="normal" in="SourceGraphic" in2="BackgroundImageFix" result="shape"/>
<feGaussianBlur stdDeviation="2.5" result="effect1_foregroundBlur"/>
</filter>
<filter id="filter2_i" x="24.5763" y="22.577" width="6.06797" height="6.06797" filterUnits="userSpaceOnUse" color-interpolation-filters="sRGB">
<feFlood flood-opacity="0" result="BackgroundImageFix"/>
<feBlend mode="normal" in="SourceGraphic" in2="BackgroundImageFix" result="shape"/>
<feColorMatrix in="SourceAlpha" type="matrix" values="0 0 0 0 0 0 0 0 0 0 0 0 0 0 0 0 0 0 127 0" result="hardAlpha"/>
<feOffset dx="2" dy="2"/>
<feGaussianBlur stdDeviation="1.5"/>
<feComposite in2="hardAlpha" operator="arithmetic" k2="-1" k3="1"/>
<feColorMatrix type="matrix" values="0 0 0 0 0.520833 0 0 0 0 0.325521 0 0 0 0 0.325521 0 0 0 0.25 0"/>
<feBlend mode="normal" in2="shape" result="effect1_innerShadow"/>
</filter>
</defs>
</svg>
