<svg width="102" height="69" viewBox="0 0 102 69" fill="none" xmlns="http://www.w3.org/2000/svg">
<path d="M17.1063 5.76204V15.7554C17.1063 16.1757 17.0808 16.5643 17.0297 16.9209C16.9915 17.2776 16.9214 17.5833 16.8194 17.8381C16.6536 18.2457 16.4241 18.6215 16.1309 18.9655C15.8504 19.2967 15.5189 19.5833 15.1364 19.8253C14.7539 20.0546 14.3268 20.2329 13.855 20.3603C13.396 20.5004 12.9115 20.5705 12.4015 20.5705C10.8588 20.5705 9.60288 19.8635 8.63388 18.4495L11.0819 15.9464C11.1456 16.3795 11.2859 16.7235 11.5026 16.9783C11.7194 17.233 11.9871 17.3604 12.3059 17.3604C13.0071 17.3604 13.3578 16.8063 13.3578 15.698V5.76204H17.1063ZM30.4004 5.76204V13.5962C30.4004 14.0166 30.4131 14.4497 30.4386 14.8955C30.4769 15.3286 30.5725 15.7235 30.7255 16.0802C30.8912 16.4369 31.1462 16.7299 31.4905 16.9591C31.8347 17.1757 32.3192 17.284 32.944 17.284C33.5687 17.284 34.0469 17.1757 34.3784 16.9591C34.7226 16.7299 34.9776 16.4369 35.1434 16.0802C35.3091 15.7235 35.4047 15.3286 35.4302 14.8955C35.4685 14.4497 35.4876 14.0166 35.4876 13.5962V5.76204H39.217V14.1121C39.217 16.3541 38.7006 17.991 37.6679 19.0228C36.6479 20.0546 35.0732 20.5705 32.944 20.5705C30.8147 20.5705 29.2337 20.0546 28.201 19.0228C27.1682 17.991 26.6519 16.3541 26.6519 14.1121V5.76204H30.4004ZM52.495 5.76204V16.9974H56.9893V20.1692H48.7465V5.76204H52.495ZM69.1735 5.76204V20.1692H65.425V5.76204H69.1735ZM86.5268 14.8191L84.8438 10.0231L83.1608 14.8191H86.5268ZM87.5213 17.6661H82.1663L81.3057 20.1692H77.3086L82.7974 5.76204H86.8902L92.3791 20.1692H88.3819L87.5213 17.6661Z" fill="#343546"/>
<path fill-rule="evenodd" clip-rule="evenodd" d="M15.3703 31.2928L16.2471 29.1923H21.7839L22.6833 31.1962L35.5381 59.8368L48.1239 31.2235L49.0173 29.1923H54.544L55.4312 31.2509L67.6754 59.6675L80.1869 31.2235L81.0799 29.1923H86.7128L87.5574 31.4072L101.606 68.2293L100.918 68.4915H93.1775L83.5725 43.315L72.4981 68.4915H62.8017L51.7339 42.8051L40.4355 68.4915H30.6895L19.1804 42.8493L8.47684 68.4915H0.903322L0 68.1152L15.3703 31.2928Z" fill="#343546"/>
<path d="M101.648 50.4596L68.3533 44.0145L67.0952 50.5022L100.39 56.9473L101.648 50.4596Z" fill="#343546"/>
</svg>
