<svg width="653" height="598" viewBox="0 0 653 598" fill="none" xmlns="http://www.w3.org/2000/svg">
<path fill-rule="evenodd" clip-rule="evenodd" d="M44.6272 160.267C21.1993 163.298 3.25703 182.638 2.07882 206.231C-3.17655 311.471 1.15292 383.686 19.4254 487.204C23.4399 509.947 42.9049 526.673 65.9772 527.681C265.495 536.401 391.584 538.379 585.399 528.023C607.563 526.839 626.348 511.067 630.859 489.334C652.547 384.857 655.978 312.36 650.952 206.998C649.81 183.063 631.513 163.479 607.722 160.617C411.072 136.963 251.979 133.443 44.6272 160.267ZM103.477 200.299C78.9128 202.227 59.4152 221.977 58.3125 246.593C54.9023 322.726 58.4365 377.969 71.7903 453.405C75.8006 476.06 95.2694 492.636 118.256 493.597C277.12 500.243 380.005 501.723 534.445 493.913C556.515 492.797 575.296 477.179 579.79 455.544C595.664 379.118 598.684 323.551 595.367 247.073C594.29 222.251 574.604 202.314 549.828 200.47C378.377 187.713 267.972 187.389 103.477 200.299Z" fill="#A89476"/>
<line x1="7.5" y1="-7.5" x2="166.025" y2="-7.5" transform="matrix(0.524494 -0.851414 0.912943 0.408087 449 163.741)" stroke="#232529" stroke-width="15" stroke-linecap="round"/>
<line x1="7.5" y1="-7.5" x2="161.447" y2="-7.5" transform="matrix(-0.300061 -0.95392 0.974927 -0.222525 454.137 161.162)" stroke="#232529" stroke-width="15" stroke-linecap="round"/>
<line x1="15" y1="-15" x2="65.6703" y2="-15" transform="matrix(-0.433864 -0.900978 0.970285 -0.241965 568 592.682)" stroke="#603900" stroke-width="30" stroke-linecap="round"/>
<line x1="15" y1="-15" x2="65.6703" y2="-15" transform="matrix(-0.433864 0.900978 0.970285 0.241965 148 525.318)" stroke="#603900" stroke-width="30" stroke-linecap="round"/>
</svg>
