<svg width="152" height="109" viewBox="0 0 152 109" fill="none" xmlns="http://www.w3.org/2000/svg">
<path fill-rule="evenodd" clip-rule="evenodd" d="M30.8043 43.3278C40.2032 40.8094 50.7095 43.6043 52.9092 51.8139C55.0476 59.7946 46.8947 66.8309 37.7579 69.2791C28.5276 71.7523 17.7627 69.8725 15.6025 61.8102C13.3815 53.5213 21.3145 45.8706 30.8043 43.3278Z" fill="#FEEFE7"/>
<path fill-rule="evenodd" clip-rule="evenodd" d="M121.5 17.87C126.248 13.4165 143.864 21.257 130.5 31.37C115.071 43.046 80.5558 48.1141 61.5001 53.87C51.3878 56.9245 39.8334 56.8701 39 54.37C37.6668 50.37 43.0765 47.9339 57.5 45.37C78.9799 41.5518 109.064 29.5336 121.5 17.87Z" fill="#FEEFE7"/>
</svg>
