<svg width="152" height="110" viewBox="0 0 152 110" fill="none" xmlns="http://www.w3.org/2000/svg">
<path fill-rule="evenodd" clip-rule="evenodd" d="M30.8043 44.9578C40.2032 42.4394 50.7095 45.2343 52.9092 53.4439C55.0476 61.4246 46.8947 68.4609 37.7579 70.9091C28.5276 73.3823 17.7627 71.5025 15.6025 63.4402C13.3815 55.1513 21.3145 47.5006 30.8043 44.9578Z" fill="#A89476"/>
<path fill-rule="evenodd" clip-rule="evenodd" d="M121.5 19.5C126.248 15.0465 143.864 22.8869 130.5 33C115.071 44.676 80.5558 49.744 61.5001 55.5C51.3878 58.5545 39.8334 58.5 39 56C37.6668 52 43.0765 49.5638 57.5 47C78.9799 43.1818 109.064 31.1636 121.5 19.5Z" fill="#A89476"/>
</svg>
