<svg width="54" height="54" viewBox="0 0 54 54" fill="none" xmlns="http://www.w3.org/2000/svg">
<g filter="url(#filter0_d)">
<circle cx="27" cy="25" r="25" fill="#99AC94"/>
</g>
<circle cx="36" cy="13" r="4" fill="#E6D59B"/>
<circle cx="35.5" cy="12.5" r="2.5" fill="#CCB871"/>
<circle cx="20" cy="13" r="4" fill="#E6D59B"/>
<circle cx="20.5" cy="12.5" r="2.5" fill="#CCB871"/>
<ellipse cx="28" cy="19.5" rx="11" ry="10.5" fill="#E6D59B"/>
<rect x="20" y="21" width="17" height="21" rx="5" fill="#E6D59B"/>
<path fill-rule="evenodd" clip-rule="evenodd" d="M18.5 35C16.567 35 15 36.567 15 38.5C15 40.433 16.567 42 18.5 42H24.3368C24.1208 41.5454 24 41.0368 24 40.5C24 38.567 25.567 37 27.5 37H31.6632C31.1015 35.8175 29.8962 35 28.5 35H18.5Z" fill="#DECB89"/>
<rect x="21" y="35" width="16" height="7" rx="3.5" fill="#EFDFA7"/>
<rect x="16" y="26" width="8" height="7" rx="3.5" fill="#DECB89"/>
<rect x="24" y="26" width="12" height="7" rx="3.5" fill="#EFDFA7"/>
<circle cx="25" cy="18" r="1" fill="#CCB871"/>
<circle cx="31" cy="18" r="1" fill="#CCB871"/>
<ellipse cx="28" cy="20.5" rx="1" ry="0.5" fill="#CCB871"/>
<defs>
<filter id="filter0_d" x="0" y="0" width="54" height="54" filterUnits="userSpaceOnUse" color-interpolation-filters="sRGB">
<feFlood flood-opacity="0" result="BackgroundImageFix"/>
<feColorMatrix in="SourceAlpha" type="matrix" values="0 0 0 0 0 0 0 0 0 0 0 0 0 0 0 0 0 0 127 0" result="hardAlpha"/>
<feOffset dy="2"/>
<feGaussianBlur stdDeviation="1"/>
<feComposite in2="hardAlpha" operator="out"/>
<feColorMatrix type="matrix" values="0 0 0 0 0 0 0 0 0 0 0 0 0 0 0 0 0 0 0.25 0"/>
<feBlend mode="normal" in2="BackgroundImageFix" result="effect1_dropShadow"/>
<feBlend mode="normal" in="SourceGraphic" in2="effect1_dropShadow" result="shape"/>
</filter>
</defs>
</svg>
