<svg width="148" height="100" viewBox="0 0 148 100" fill="none" xmlns="http://www.w3.org/2000/svg">
<path d="M24.8208 8.35078V22.8339C24.8208 23.4431 24.7838 24.0062 24.7098 24.5231C24.6543 25.04 24.5526 25.4831 24.4046 25.8523C24.1641 26.4431 23.8311 26.9877 23.4056 27.4862C22.9986 27.9662 22.5176 28.3816 21.9626 28.7323C21.4076 29.0646 20.7878 29.3231 20.1033 29.5077C19.4373 29.7108 18.7343 29.8123 17.9943 29.8123C15.7558 29.8123 13.9336 28.7877 12.5276 26.7385L16.0796 23.1108C16.1721 23.7385 16.3756 24.2369 16.6901 24.6062C17.0046 24.9754 17.3931 25.16 17.8556 25.16C18.8731 25.16 19.3818 24.3569 19.3818 22.7508V8.35078H24.8208ZM44.1103 8.35078V19.7046C44.1103 20.3139 44.1288 20.9416 44.1658 21.5877C44.2213 22.2154 44.3601 22.7877 44.5821 23.3046C44.8226 23.8216 45.1926 24.2462 45.6921 24.5785C46.1916 24.8923 46.8946 25.0492 47.8011 25.0492C48.7076 25.0492 49.4013 24.8923 49.8823 24.5785C50.3818 24.2462 50.7518 23.8216 50.9923 23.3046C51.2328 22.7877 51.3716 22.2154 51.4086 21.5877C51.4641 20.9416 51.4918 20.3139 51.4918 19.7046V8.35078H56.9031V20.4523C56.9031 23.7016 56.1538 26.0739 54.6553 27.5692C53.1753 29.0646 50.8906 29.8123 47.8011 29.8123C44.7116 29.8123 42.4176 29.0646 40.9191 27.5692C39.4206 26.0739 38.6713 23.7016 38.6713 20.4523V8.35078H44.1103ZM76.1692 8.35078V24.6339H82.6904V29.2308H70.7302V8.35078H76.1692ZM100.369 8.35078V29.2308H94.9304V8.35078H100.369ZM125.549 21.4769L123.107 14.5262L120.665 21.4769H125.549ZM126.992 25.6031H119.222L117.973 29.2308H112.173L120.137 8.35078H126.076L134.04 29.2308H128.24L126.992 25.6031Z" fill="#3C4639"/>
<path fill-rule="evenodd" clip-rule="evenodd" d="M22.3021 45.3518L23.5742 42.3077H31.6079L32.913 45.2118L51.5651 86.72L69.8269 45.2514L71.1232 42.3077H79.1422L80.4295 45.2912L98.1957 86.4746L116.35 45.2514L117.645 42.3077H125.818L127.044 45.5176L147.428 98.8831L146.43 99.2631H135.199L121.262 62.7753L105.193 99.2631H91.1241L75.0649 62.0363L58.6711 99.2631H44.5299L27.8303 62.1004L12.2997 99.2631H1.3107L0 98.7177L22.3021 45.3518Z" fill="#3C4639"/>
<path d="M147.49 73.1298L99.1793 63.7892L97.3538 73.1916L145.664 82.5322L147.49 73.1298Z" fill="#3C4639"/>
</svg>
