<svg width="172" height="71" viewBox="0 0 172 71" fill="none" xmlns="http://www.w3.org/2000/svg">
<path d="M45.6172 25.7491L57.8793 3.09588C58.5783 1.80454 59.9286 1 61.397 1H123.136C124.865 1 126.399 2.11099 126.937 3.75404L134.122 25.6711C134.563 27.018 135.684 28.0307 137.069 28.3331L164.67 34.3605C166.238 34.7028 167.449 35.9484 167.747 37.5247L171.102 55.2563C171.569 57.7198 169.679 60 167.172 60H132.262H104.683H71.469H44.4828H7.17367C4.04111 60 2.12423 56.5622 3.77088 53.8974L18.6966 29.7424C19.4253 28.5629 20.7129 27.845 22.0993 27.845H42.0995C43.5679 27.845 44.9183 27.0405 45.6172 25.7491Z" fill="#F0F0F0" stroke="#F0F0F0"/>
<path d="M46.6438 31.6854H23.3395L8 55H167L163.755 37.8652L130.421 31.6854L121.571 5H62.2783L46.6438 31.6854Z" fill="#5FB052"/>
<circle cx="119" cy="58" r="11.5" fill="black" stroke="#F0F0F0" stroke-width="3"/>
<circle cx="59" cy="58" r="11.5" fill="black" stroke="#F0F0F0" stroke-width="3"/>
</svg>
