<svg width="172" height="72" viewBox="0 0 172 72" fill="none" xmlns="http://www.w3.org/2000/svg">
<path d="M45.6115 26.1794L57.8851 3.12056C58.5797 1.81549 59.9376 1 61.416 1H123.121C124.857 1 126.396 2.12022 126.928 3.77284L134.131 26.1191C134.567 27.47 135.685 28.4891 137.071 28.7968L164.674 34.9267C166.239 35.2743 167.446 36.5233 167.739 38.0998L171.12 56.2683C171.577 58.7284 169.689 61 167.187 61H132.262H104.683H71.469H44.4828H7.11096C3.9918 61 2.07284 57.5886 3.69253 54.9229L18.7006 30.2229C19.4261 29.0289 20.7219 28.3 22.119 28.3H42.0805C43.5589 28.3 44.9168 27.4845 45.6115 26.1794Z" fill="#F0F0F0" stroke="#F0F0F0"/>
<path d="M47.4007 32.7528H24.243L9 57H167L163.775 39.1798L130.651 32.7528L121.857 5H62.9369L47.4007 32.7528Z" fill="#DF68B7"/>
<circle cx="119" cy="59" r="11.5" fill="black" stroke="#F0F0F0" stroke-width="3"/>
<circle cx="60" cy="59" r="11.5" fill="black" stroke="#F0F0F0" stroke-width="3"/>
</svg>
