<svg xmlns="http://www.w3.org/2000/svg" viewBox="0 0 257.83 127.24"><defs><style>.cls-1{fill:#e6e6e6;}.cls-2{fill:#ff0025;}.cls-3{fill:#f2f2f2;}.cls-4{fill:#8cc63f;}.cls-5{fill:#efd340;}.cls-6{fill:#fff;}.cls-7{fill:none;stroke:#f2f2f2;stroke-miterlimit:10;stroke-width:2px;}</style></defs><g id="Layer_2" data-name="Layer 2"><g id="Layer_5" data-name="Layer 5"><polygon class="cls-1" points="0.23 114.57 24.78 126.71 24.78 35.87 0.23 27.52 0.23 114.57"/><polygon class="cls-2" points="257.78 83.67 24.8 126.97 24.8 35.87 257.78 6.11 257.78 83.67"/><polygon class="cls-3" points="227.49 0 257.23 6.18 24.87 35.86 0 27.4 227.49 0"/><polygon class="cls-4" points="257.83 37.55 24.78 72.81 24.78 36.01 257.83 6.22 257.83 37.55"/><path class="cls-5" d="M50.26,81.82v24.31l-6.42,1.13V82.85Z"/><path class="cls-5" d="M55.39,105.23V81l6.33-1,11.54,12.8V78.15l6.15-1V101l-6.15,1.08L61.72,89.37v14.75Z"/><path class="cls-5" d="M97.16,80.37a6.14,6.14,0,0,0-2-.89,5,5,0,0,0-1.91-.08,3.57,3.57,0,0,0-1.91.88,2.1,2.1,0,0,0-.74,1.6,1.24,1.24,0,0,0,.37,1,2.52,2.52,0,0,0,1,.55,7.05,7.05,0,0,0,1.36.29c.5.06,1,.14,1.49.22a7.55,7.55,0,0,1,4.31,2A5.75,5.75,0,0,1,100.49,90a9.61,9.61,0,0,1-.59,3.38,8.72,8.72,0,0,1-1.75,2.82,10.38,10.38,0,0,1-2.82,2.12,13.22,13.22,0,0,1-3.81,1.24,12.5,12.5,0,0,1-8.23-1.23l2.62-5.43a8.58,8.58,0,0,0,2.7,1.36,6,6,0,0,0,2.63.14,3.64,3.64,0,0,0,2.21-1.07,2.53,2.53,0,0,0,.73-1.69,2,2,0,0,0-.19-.89,1.54,1.54,0,0,0-.62-.62,4,4,0,0,0-1.12-.42c-.46-.11-1-.22-1.69-.34s-1.55-.27-2.3-.44a5.85,5.85,0,0,1-2-.88,4.5,4.5,0,0,1-1.44-1.66,6.28,6.28,0,0,1-.54-2.83,9.11,9.11,0,0,1,.58-3.29,8.75,8.75,0,0,1,1.61-2.72,9.24,9.24,0,0,1,2.55-2,10.54,10.54,0,0,1,3.36-1.1,14.35,14.35,0,0,1,3.6-.09,13.86,13.86,0,0,1,3.58.85Z"/><path class="cls-5" d="M110.17,95.62l-5.93,1V73.2l9.41-1.5c2.54-.4,4.47,0,5.81,1.11s2,2.93,2,5.39a9,9,0,0,1-2,6.06,9.34,9.34,0,0,1-5.81,3l-3.48.6Zm0-12.64,2-.33c2.16-.36,3.24-1.5,3.24-3.44s-1.08-2.73-3.24-2.37l-2,.31Z"/><path class="cls-5" d="M130.32,69v23l-5.77,1V70Z"/><path class="cls-5" d="M153,88.12l-7,1.22-5.39-7.86v8.8l-5.69,1v-23l8.84-1.41a7.87,7.87,0,0,1,3.16.06,5,5,0,0,1,2.21,1.17,5.3,5.3,0,0,1,1.32,2,7.61,7.61,0,0,1,.44,2.64,7.86,7.86,0,0,1-1.19,4.4,7.41,7.41,0,0,1-3.5,2.78ZM140.62,77.63l1.07-.18a4.66,4.66,0,0,0,2.57-1.16,3,3,0,0,0,.89-2.23,2.16,2.16,0,0,0-.89-2,3.62,3.62,0,0,0-2.57-.3l-1.07.17Z"/><path class="cls-5" d="M168.27,81.53l-7.83,1.36L159.17,87l-5.91,1,8.11-24,6-.95,8,21.07-5.78,1Zm-1.45-4.19-2.45-7.08-2.47,7.92Z"/><path class="cls-5" d="M184.58,65.27v17.3l-5.35.94V66.14l-4.42.72V61.94l14.13-2.26v4.87Z"/><path class="cls-5" d="M196.54,58.47v22l-5.25.93V59.31Z"/><path class="cls-5" d="M199.85,68.92a13.46,13.46,0,0,1,.82-4.69A14.13,14.13,0,0,1,203,60.18a12.74,12.74,0,0,1,3.48-3,12.07,12.07,0,0,1,4.42-1.59,10.32,10.32,0,0,1,4.39.18,8.31,8.31,0,0,1,3.44,1.88,8.93,8.93,0,0,1,2.23,3.26,11.44,11.44,0,0,1,.8,4.36,13.6,13.6,0,0,1-.8,4.62,14,14,0,0,1-2.23,4,13.32,13.32,0,0,1-3.44,3,12.47,12.47,0,0,1-4.39,1.65,10.35,10.35,0,0,1-4.42-.1A8.24,8.24,0,0,1,203,76.62a9.07,9.07,0,0,1-2.28-3.29A11.29,11.29,0,0,1,199.85,68.92Zm5.43-.91a5.73,5.73,0,0,0,.45,2.33,5,5,0,0,0,1.21,1.71,4.32,4.32,0,0,0,1.78,1,4.75,4.75,0,0,0,2.13.08,6,6,0,0,0,2.13-.81,7.11,7.11,0,0,0,1.78-1.56,7.53,7.53,0,0,0,1.21-2.1,7,7,0,0,0,.44-2.47,5.84,5.84,0,0,0-.44-2.31,4.82,4.82,0,0,0-1.21-1.7,4.47,4.47,0,0,0-1.78-1,4.74,4.74,0,0,0-2.13-.1,6,6,0,0,0-2.13.79,6.93,6.93,0,0,0-1.78,1.55,7.64,7.64,0,0,0-1.21,2.12A6.86,6.86,0,0,0,205.28,68Z"/><path class="cls-5" d="M224.9,75.5V53.94l5-.8,9.15,11.59V51.68l4.88-.78V72.16l-4.88.86-9.15-11.53V74.62Z"/><path class="cls-6" d="M50.1,49.53l-3.58.19a6.42,6.42,0,0,1,2.15-3.09,8.1,8.1,0,0,1,4-1.56,5.39,5.39,0,0,1,3.83.51,2.72,2.72,0,0,1,1.24,2.36,7.49,7.49,0,0,1-.11,1.29c-.07.46-.32,1.68-.75,3.67a19.63,19.63,0,0,0-.53,3.41,6.12,6.12,0,0,0,.31,1.85l-3.54.51a6.27,6.27,0,0,1-.26-1.47A6.75,6.75,0,0,1,51,58.82a5.5,5.5,0,0,1-2.1.78,3.4,3.4,0,0,1-2.79-.69,3.3,3.3,0,0,1-1.1-2.65A4.6,4.6,0,0,1,46.26,53a8.21,8.21,0,0,1,4.31-2,17.69,17.69,0,0,0,3.48-1,4.39,4.39,0,0,0,.23-1.23,1,1,0,0,0-.47-.91,2,2,0,0,0-1.39-.19,3,3,0,0,0-1.55.61A2.32,2.32,0,0,0,50.1,49.53Zm3.47,2.86a8,8,0,0,1-.87.29,9.42,9.42,0,0,0-3.59,1.46,1.7,1.7,0,0,0-.6,1.31,1.21,1.21,0,0,0,.46,1,1.5,1.5,0,0,0,1.21.26,3.74,3.74,0,0,0,1.56-.62,3.36,3.36,0,0,0,1.09-1.17,8.07,8.07,0,0,0,.64-2Z"/><path class="cls-6" d="M59.3,57.78l3.84-18.86,3.6-.48-1.29,6.28a9.19,9.19,0,0,1,1.84-1.32,5.74,5.74,0,0,1,1.87-.57,3.78,3.78,0,0,1,3.33.94,5.28,5.28,0,0,1,1.25,3.89,11.15,11.15,0,0,1-.59,3.58,9.15,9.15,0,0,1-1.57,3,8.74,8.74,0,0,1-2.07,1.88,5.85,5.85,0,0,1-2.28.84A3.78,3.78,0,0,1,63,55.05l-.46,2.26Zm4.85-6.11a2.77,2.77,0,0,0,.76,2.07,2,2,0,0,0,1.78.58,3.23,3.23,0,0,0,1.71-.89,5.69,5.69,0,0,0,1.36-2.26,8.65,8.65,0,0,0,.54-2.94,2.76,2.76,0,0,0-.73-2.1,2,2,0,0,0-1.76-.56,3.38,3.38,0,0,0-2.32,1.56A7.7,7.7,0,0,0,64.15,51.67Z"/><path class="cls-6" d="M75.51,50a9.19,9.19,0,0,1,2-6.11A8.16,8.16,0,0,1,82.91,41a5.47,5.47,0,0,1,4.47,1A5.05,5.05,0,0,1,89,46a9.2,9.2,0,0,1-2,5.77,8,8,0,0,1-5.38,3.09,6.43,6.43,0,0,1-3.26-.27,4,4,0,0,1-2.13-1.8A5.67,5.67,0,0,1,75.51,50Zm10-3.94a2.45,2.45,0,0,0-.72-1.91,2.18,2.18,0,0,0-1.87-.5,3.55,3.55,0,0,0-2,1,5.44,5.44,0,0,0-1.37,2.25,7.87,7.87,0,0,0-.49,2.56,2.79,2.79,0,0,0,.76,2.13,2.17,2.17,0,0,0,1.91.55,3.5,3.5,0,0,0,2.41-1.59A7.51,7.51,0,0,0,85.52,46Z"/><path class="cls-6" d="M92.92,39.9l3.45-.47L94.8,47.34a12,12,0,0,0-.29,1.77,1.12,1.12,0,0,0,.41.91,1.26,1.26,0,0,0,1,.25,2.68,2.68,0,0,0,.9-.31,4.62,4.62,0,0,0,.91-.66,6.34,6.34,0,0,0,.84-.95A6.18,6.18,0,0,0,99.3,47a13.46,13.46,0,0,0,.49-1.89l1.26-6.34,3.42-.47-2.64,13.29-3.2.46L99,50.27A7.61,7.61,0,0,1,94.4,53,2.69,2.69,0,0,1,91,50.11a18.28,18.28,0,0,1,.41-2.74Z"/><path class="cls-6" d="M106.09,40.7l.52-2.66,1.65-.23.42-2.11,3.87-2.92-.91,4.57,2.06-.28-.52,2.65-2.07.28L110,45.54a17,17,0,0,0-.29,1.71.69.69,0,0,0,.24.59,1.25,1.25,0,0,0,.9.1c.15,0,.52-.1,1.11-.25l-.53,2.66a9.85,9.85,0,0,1-1.78.44,3.64,3.64,0,0,1-2.61-.33,2.17,2.17,0,0,1-.82-1.86,20.38,20.38,0,0,1,.44-2.8l1-5.33Z"/><path class="cls-6" d="M120.75,38.67l.51-2.63,1.62-.22.41-2.09,3.79-2.88-.89,4.52,2-.27-.51,2.61-2,.28-1.08,5.49c-.19,1-.29,1.56-.29,1.69a.65.65,0,0,0,.25.58,1.17,1.17,0,0,0,.87.1c.15,0,.51-.1,1.1-.24L126,48.24a9.52,9.52,0,0,1-1.75.43,3.52,3.52,0,0,1-2.56-.33,2.14,2.14,0,0,1-.8-1.84,19.62,19.62,0,0,1,.43-2.78l1-5.27Z"/><path class="cls-6" d="M131.13,47.37l-3.29.48,3.52-18,3.27-.44-1.25,6.39a10.42,10.42,0,0,1,2.06-1.59,5.69,5.69,0,0,1,2.05-.67,2.72,2.72,0,0,1,2.31.56,2.8,2.8,0,0,1,.84,2.18,14.09,14.09,0,0,1-.31,2.4l-1.47,7.57-3.26.48L137.11,39a11.81,11.81,0,0,0,.24-1.6,1.12,1.12,0,0,0-1.4-1.2,3,3,0,0,0-1.57.81,6.31,6.31,0,0,0-1.49,2.14,19.67,19.67,0,0,0-.75,3.08Z"/><path class="cls-6" d="M144.53,32.87l3.21-.43-2.48,12.89-3.23.46Zm.94-4.9,3.21-.43-.6,3.15-3.22.44Z"/><path class="cls-6" d="M148,41.43l3.1-1a2.59,2.59,0,0,0,1,1.31,2.64,2.64,0,0,0,1.67.2,3.18,3.18,0,0,0,1.74-.77,1.25,1.25,0,0,0,.45-.92.82.82,0,0,0-.23-.58,3.34,3.34,0,0,0-1.32-.45,12,12,0,0,1-3.57-1.09,2.58,2.58,0,0,1-1.08-2.25,4.07,4.07,0,0,1,1-2.7,6.65,6.65,0,0,1,4.32-2.09,5.22,5.22,0,0,1,3.42.42A3.24,3.24,0,0,1,160,33.72l-2.92.94a1.61,1.61,0,0,0-.75-.91,2.79,2.79,0,0,0-1.71-.22,2.54,2.54,0,0,0-1.43.55,1.19,1.19,0,0,0-.44.87.78.78,0,0,0,.44.71,8.73,8.73,0,0,0,1.79.41,8,8,0,0,1,3.1,1,2.59,2.59,0,0,1,1.1,2.19,4.68,4.68,0,0,1-1.4,3.27,6.43,6.43,0,0,1-3.95,1.87,6.23,6.23,0,0,1-4-.42A4.09,4.09,0,0,1,148,41.43Z"/><path class="cls-6" d="M169.56,29.46l2.94-.4-.24,1.3A8.28,8.28,0,0,1,174,28.93a4.66,4.66,0,0,1,1.76-.6,3.12,3.12,0,0,1,2.88.93,5.56,5.56,0,0,1,1.09,3.81,9.66,9.66,0,0,1-1.88,5.87,5.69,5.69,0,0,1-3.81,2.5A3.23,3.23,0,0,1,170.6,40l-1.25,6.58-3.12.46Zm1.87,6.82a3,3,0,0,0,.66,2.14,1.68,1.68,0,0,0,1.54.57,2.6,2.6,0,0,0,1.47-.81A5.11,5.11,0,0,0,176.28,36a8.71,8.71,0,0,0,.47-2.63,2.88,2.88,0,0,0-.62-2,1.71,1.71,0,0,0-1.56-.52,2.79,2.79,0,0,0-1.61.91,5.26,5.26,0,0,0-1.13,2.15A8.87,8.87,0,0,0,171.43,36.28Z"/><path class="cls-6" d="M182.93,27.64l2.84-.38-.45,2.42c1.06-1.91,2.2-2.95,3.44-3.12a3,3,0,0,1,1.4.17L189,29.58a2.34,2.34,0,0,0-.88,0,3,3,0,0,0-1.59.86,5.33,5.33,0,0,0-1.27,1.9,20.5,20.5,0,0,0-.9,3.53l-.74,3.94-3.06.44Z"/><path class="cls-6" d="M189.63,33.84a8.94,8.94,0,0,1,1.75-5.63A6.77,6.77,0,0,1,196,25.58a4.46,4.46,0,0,1,3.82,1,4.92,4.92,0,0,1,1.37,3.78,8.9,8.9,0,0,1-1.71,5.31,6.64,6.64,0,0,1-4.61,2.81,5.21,5.21,0,0,1-2.79-.28,3.53,3.53,0,0,1-1.82-1.69A5.65,5.65,0,0,1,189.63,33.84Zm8.57-3.54a2.37,2.37,0,0,0-.62-1.78A1.8,1.8,0,0,0,196,28a3,3,0,0,0-1.73.9A5.09,5.09,0,0,0,193.08,31a7.8,7.8,0,0,0-.42,2.36,2.76,2.76,0,0,0,.65,2,1.8,1.8,0,0,0,1.64.53A2.94,2.94,0,0,0,197,34.43,7.25,7.25,0,0,0,198.2,30.3Z"/><path class="cls-6" d="M204.58,24.69l3-.4L205.6,34.74a23.3,23.3,0,0,1-1.41,5.49,3.74,3.74,0,0,1-2.86,1.87,6.42,6.42,0,0,1-2.24,0l.46-2.77a4.52,4.52,0,0,0,1.21,0,1.36,1.36,0,0,0,1-.65,15.44,15.44,0,0,0,1-3.73Zm.86-4.69,3-.39-.56,3-3,.4Z"/><path class="cls-6" d="M218.66,29.73l-7.32,1c0,.13,0,.23,0,.3A2.56,2.56,0,0,0,212,32.9a1.67,1.67,0,0,0,1.51.52,3,3,0,0,0,2.26-2l2.61.11a7.26,7.26,0,0,1-2,2.9,5.61,5.61,0,0,1-2.86,1.29,4,4,0,0,1-3.56-1,5.13,5.13,0,0,1-1.37-3.85,8.78,8.78,0,0,1,1.24-4.56,6.4,6.4,0,0,1,4.81-3.25,3.46,3.46,0,0,1,3.14.93,5,5,0,0,1,1.17,3.62A10,10,0,0,1,218.66,29.73Zm-2.45-1.62c0-.14,0-.25,0-.33a2.78,2.78,0,0,0-.54-1.91,1.53,1.53,0,0,0-1.44-.47,2.61,2.61,0,0,0-1.62,1,4.87,4.87,0,0,0-1,2.37Z"/><path class="cls-6" d="M227,29l2.79.1a7.93,7.93,0,0,1-2,3.45,5.62,5.62,0,0,1-3.13,1.53,3.58,3.58,0,0,1-3.23-.88,4.8,4.8,0,0,1-1.2-3.56,10.22,10.22,0,0,1,.72-3.77,7.39,7.39,0,0,1,2.19-3,6.37,6.37,0,0,1,3.18-1.43,3.68,3.68,0,0,1,3,.69,3.72,3.72,0,0,1,1.25,2.7l-2.72.7a2.08,2.08,0,0,0-.54-1.39,1.4,1.4,0,0,0-1.17-.31,2.61,2.61,0,0,0-1.55.91A5.36,5.36,0,0,0,223.39,27a10.57,10.57,0,0,0-.38,2.64,2.25,2.25,0,0,0,.46,1.56,1.24,1.24,0,0,0,1.15.4,2.27,2.27,0,0,0,1.33-.75A4.29,4.29,0,0,0,227,29Z"/><path class="cls-6" d="M231.84,23.35l.44-2.43,1.38-.19L234,18.8l3.24-2.63-.75,4.18,1.72-.24-.43,2.42-1.74.24-.91,5.05c-.17.92-.25,1.44-.25,1.57a.67.67,0,0,0,.21.54,1,1,0,0,0,.75.1l.93-.21-.44,2.42a7.18,7.18,0,0,1-1.5.38,2.8,2.8,0,0,1-2.19-.33,2.09,2.09,0,0,1-.68-1.71,19.27,19.27,0,0,1,.37-2.56l.88-4.86Z"/><polygon class="cls-7" points="256.8 83.27 25.78 126.04 25.78 37.05 256.8 7.39 256.8 83.27"/></g></g></svg>