<svg xmlns="http://www.w3.org/2000/svg" viewBox="0 0 237.5 79.01"><defs><style>.cls-1{fill:#f4b158;}.cls-2{fill:#ff9d00;}.cls-3{fill:#f9c170;}.cls-4{fill:none;stroke:#edcf9f;stroke-miterlimit:10;stroke-width:2px;}.cls-5{fill:#b77548;}.cls-6{fill:#b7835f;}</style></defs><g id="Layer_2" data-name="Layer 2"><g id="Layer_4" data-name="Layer 4"><polygon class="cls-1" points="231.65 79.01 0 59.67 0 0.04 231.65 9.51 231.65 79.01"/><polygon class="cls-2" points="237.5 77.98 231.74 79 231.74 9.59 237.5 9.09 237.5 77.98"/><polygon class="cls-3" points="231.74 9.59 237.5 9.09 11.06 0 0.06 0 231.74 9.59"/><path class="cls-4" d="M184.33,62.62,28.22,51.68a18.45,18.45,0,0,1-17.16-18.4h0A18.45,18.45,0,0,1,30.33,14.85l156.1,6.9a18.44,18.44,0,0,1,17.63,18.43v4A18.45,18.45,0,0,1,184.33,62.62Z"/><g id="Perspective_Text" data-name="Perspective Text"><path class="cls-5" d="M29.81,32.18l-4.41-.8a6.1,6.1,0,0,1,.71-2.11A4,4,0,0,1,27.47,28a4.82,4.82,0,0,1,1.75-.54,11.75,11.75,0,0,1,2.41-.1A16.37,16.37,0,0,1,35,27.8a4.17,4.17,0,0,1,3.06,3A7.41,7.41,0,0,1,38.4,33v6.33a8.35,8.35,0,0,0,.11,1.59,7.82,7.82,0,0,0,.48,1.5l-4.39-.28a5.09,5.09,0,0,1-.34-.87,5.72,5.72,0,0,1-.16-.92,5.54,5.54,0,0,1-1.82,1.37,6.35,6.35,0,0,1-2.86.4,4.52,4.52,0,0,1-3.27-1.39,4.32,4.32,0,0,1-1.12-3,4,4,0,0,1,.81-2.61,4.7,4.7,0,0,1,3-1.38c1.73-.31,2.86-.53,3.38-.67a13.89,13.89,0,0,0,1.64-.56,2.29,2.29,0,0,0-.35-1.43,1.69,1.69,0,0,0-1.25-.47,2.65,2.65,0,0,0-1.71.33A2.25,2.25,0,0,0,29.81,32.18Zm4,3.11a19.46,19.46,0,0,1-2,.6,3.89,3.89,0,0,0-1.78.76,1.4,1.4,0,0,0-.39,1A1.6,1.6,0,0,0,30,38.71a1.54,1.54,0,0,0,1.12.48,2.49,2.49,0,0,0,1.44-.35,2.23,2.23,0,0,0,.95-1,4,4,0,0,0,.28-1.64Z"/><path class="cls-5" d="M54.25,23.38v20l-4.47-.29V41a5.91,5.91,0,0,1-1.71,1.73,4.07,4.07,0,0,1-2.28.47A4.54,4.54,0,0,1,42,40.69a10.84,10.84,0,0,1-1.33-5.51,8.46,8.46,0,0,1,1.46-5.38,4.27,4.27,0,0,1,3.73-1.69,4.76,4.76,0,0,1,2,.54,5.06,5.06,0,0,1,1.61,1.4V23.13ZM49.46,35.82a4.41,4.41,0,0,0-.62-2.58,2,2,0,0,0-1.56-.92A1.54,1.54,0,0,0,45.9,33a4.62,4.62,0,0,0-.56,2.65,4.78,4.78,0,0,0,.57,2.62,1.81,1.81,0,0,0,1.43.91,1.7,1.7,0,0,0,1.52-.73A4.53,4.53,0,0,0,49.46,35.82Z"/><path class="cls-5" d="M70.74,24.22V44.46l-4.57-.3V42a6,6,0,0,1-1.75,1.75,4.33,4.33,0,0,1-2.33.48,4.66,4.66,0,0,1-3.93-2.52,10.83,10.83,0,0,1-1.36-5.56,8.45,8.45,0,0,1,1.5-5.45A4.4,4.4,0,0,1,62.11,29a5,5,0,0,1,2.06.55A5.21,5.21,0,0,1,65.81,31V24Zm-4.9,12.57a4.47,4.47,0,0,0-.63-2.6,2.05,2.05,0,0,0-1.6-.94A1.58,1.58,0,0,0,62.2,34a4.7,4.7,0,0,0-.57,2.68,4.78,4.78,0,0,0,.58,2.65,1.91,1.91,0,0,0,1.46.93,1.75,1.75,0,0,0,1.55-.75A4.43,4.43,0,0,0,65.84,36.79Z"/><path class="cls-5" d="M86.57,35.46l-4.76-.85a6.32,6.32,0,0,1,.77-2.19,4.15,4.15,0,0,1,1.47-1.33,5.44,5.44,0,0,1,1.88-.57,13.87,13.87,0,0,1,2.61-.09,18.85,18.85,0,0,1,3.64.48,4.8,4.8,0,0,1,2.29,1.33,4.61,4.61,0,0,1,1,1.84,7.39,7.39,0,0,1,.37,2.24V42.9A9,9,0,0,0,96,44.56a8.51,8.51,0,0,0,.52,1.56l-4.75-.31a5.94,5.94,0,0,1-.37-.9c0-.2-.11-.52-.17-.95a6.12,6.12,0,0,1-2,1.41,7.06,7.06,0,0,1-3.09.41,5,5,0,0,1-3.54-1.45,4.41,4.41,0,0,1-1.2-3.09,4.07,4.07,0,0,1,.86-2.72,5.23,5.23,0,0,1,3.21-1.42q2.82-.48,3.66-.69a14.08,14.08,0,0,0,1.78-.58,2.26,2.26,0,0,0-.39-1.49,1.83,1.83,0,0,0-1.34-.49,3,3,0,0,0-1.85.34A2.31,2.31,0,0,0,86.57,35.46Zm4.36,3.24a18.72,18.72,0,0,1-2.17.61,4.35,4.35,0,0,0-1.93.8,1.42,1.42,0,0,0-.42,1,1.59,1.59,0,0,0,.42,1.12,1.68,1.68,0,0,0,1.21.5,2.81,2.81,0,0,0,1.56-.36,2.43,2.43,0,0,0,1-1.07,4.08,4.08,0,0,0,.31-1.71Z"/><path class="cls-5" d="M117.57,41.55l5,.93a7.68,7.68,0,0,1-1.36,2.91,5.83,5.83,0,0,1-2.39,1.81,8.43,8.43,0,0,1-3.7.46,12.8,12.8,0,0,1-3.58-.68,6.6,6.6,0,0,1-2.46-1.6,8.15,8.15,0,0,1-1.61-2.44,9.54,9.54,0,0,1-.58-3.6,9,9,0,0,1,.71-3.82,6.35,6.35,0,0,1,1.42-2,6.07,6.07,0,0,1,1.85-1.24,9,9,0,0,1,3.88-.48,8.66,8.66,0,0,1,5.08,1.6,7.62,7.62,0,0,1,2.47,4l-4.93.45a2.74,2.74,0,0,0-.83-1.51,2.61,2.61,0,0,0-1.63-.58,2.38,2.38,0,0,0-2.09.9A4.86,4.86,0,0,0,112,39.8a4.56,4.56,0,0,0,.79,2.87,2.66,2.66,0,0,0,2,1.09,2.49,2.49,0,0,0,1.72-.48A3.3,3.3,0,0,0,117.57,41.55Z"/><path class="cls-5" d="M129.78,38l-5-.88a6.29,6.29,0,0,1,.82-2.25,4.44,4.44,0,0,1,1.55-1.37,5.82,5.82,0,0,1,2-.58,15.46,15.46,0,0,1,2.76-.09,20.71,20.71,0,0,1,3.85.5,5.14,5.14,0,0,1,2.43,1.37,4.63,4.63,0,0,1,1.08,1.9,7.28,7.28,0,0,1,.4,2.3v6.78a9.58,9.58,0,0,0,.12,1.71,9.25,9.25,0,0,0,.55,1.6l-5-.32a5.64,5.64,0,0,1-.4-.93,7.74,7.74,0,0,1-.18-1,6.51,6.51,0,0,1-2.08,1.45,7.7,7.7,0,0,1-3.27.42,5.48,5.48,0,0,1-3.75-1.5,4.48,4.48,0,0,1-1.27-3.19,4.09,4.09,0,0,1,.91-2.79,5.59,5.59,0,0,1,3.4-1.46c2-.33,3.28-.56,3.87-.7a17.51,17.51,0,0,0,1.89-.59,2.31,2.31,0,0,0-.41-1.54,2,2,0,0,0-1.42-.51,3.28,3.28,0,0,0-2,.35A2.34,2.34,0,0,0,129.78,38Zm4.61,3.35a23.28,23.28,0,0,1-2.29.62,4.82,4.82,0,0,0-2,.82,1.44,1.44,0,0,0-.44,1,1.59,1.59,0,0,0,.44,1.15,1.82,1.82,0,0,0,1.28.52,3,3,0,0,0,1.65-.37,2.56,2.56,0,0,0,1.09-1.1,4.08,4.08,0,0,0,.32-1.75Z"/><path class="cls-5" d="M142.9,33.73,148,34v2.53a5.64,5.64,0,0,1,1.51-2.18,2.94,2.94,0,0,1,1.94-.51,5.62,5.62,0,0,1,2.64,1l-1.69,4.13a4.4,4.4,0,0,0-1.53-.52,1.74,1.74,0,0,0-1.66.86q-.84,1.3-.84,5v5.18l-5.43-.35Z"/><path class="cls-5" d="M170.86,29.29V50.91l-5.21-.34v-2.3a6.53,6.53,0,0,1-2,1.85,5.14,5.14,0,0,1-2.66.51,5.41,5.41,0,0,1-4.48-2.7A11.16,11.16,0,0,1,155,42c0-2.56.56-4.5,1.7-5.8A5.14,5.14,0,0,1,161,34.36a6,6,0,0,1,2.34.6,5.8,5.8,0,0,1,1.87,1.51V29ZM165.28,42.7a4.54,4.54,0,0,0-.72-2.78,2.41,2.41,0,0,0-1.82-1,1.86,1.86,0,0,0-1.62.78,4.76,4.76,0,0,0-.65,2.86,4.82,4.82,0,0,0,.67,2.83,2.17,2.17,0,0,0,1.66,1,2,2,0,0,0,1.77-.79A4.53,4.53,0,0,0,165.28,42.7Z"/></g></g><g id="Layer_6" data-name="Layer 6"><path class="cls-6" d="M199.47,59.94V47.15l-12.06-.73V37.66l12.06.66V25.53l8.13.38V38.77l12.4.68V48.4l-12.4-.75V60.5Z"/></g></g></svg>