<svg width="78" height="138" viewBox="0 0 78 138" fill="none" xmlns="http://www.w3.org/2000/svg">
<path fill-rule="evenodd" clip-rule="evenodd" d="M19.8379 131.583C-0.53994 138.346 20.2039 137.296 23.0494 136.676C40.2544 134.794 78.5086 113.927 77.553 67.6501C76.5974 21.3729 46.3447 5.12436 31.283 1.20226C16.2213 -2.71983 -12.9225 17.1981 7.3293 44.8768C11.0467 49.9575 17.5038 55.188 24.1312 60.5564C34.3558 68.8388 44.9856 77.4493 46.5847 86.3439C49.1854 96.3515 40.0732 106.876 36.4871 111.018L36.4871 111.018C35.5771 112.069 35.023 112.709 35.1063 112.825C35.254 113.031 36.5965 111.934 38.3941 110.465C41.6055 107.841 46.269 104.03 48.1666 104.344C51.1263 104.834 40.2158 124.82 19.8379 131.583ZM28.5092 131.633C27.6715 132 29.4533 132.567 32.2629 132.022C35.0725 131.477 53.8768 126.23 60.3554 96.4781C66.834 66.7257 52.4588 38.5742 51.6212 38.941C51.4658 39.009 51.8193 39.9617 52.4511 41.664C55.2239 49.1354 63.3555 71.0465 57.3306 95.9774C50.3592 124.824 31.6758 130.641 28.8445 131.522C28.6713 131.576 28.5574 131.612 28.5092 131.633ZM46.2979 29.0346C46.3681 28.4353 50.1461 36.0364 50.0703 36.5902C49.9946 37.144 48.0997 33.2831 48.0997 33.2831C48.0997 33.2831 46.2278 29.6338 46.2979 29.0346ZM46.6379 101.078C47.5627 99.1405 48.8927 96.3539 49.6027 93.8192C50.2605 91.471 50.5508 88.0217 50.7766 85.3377C50.9666 83.0793 51.111 81.3629 51.3905 81.3002C52.0021 81.1631 52.3839 89.4227 51.0826 94.0641C49.8958 98.297 45.9149 103.852 45.6455 103.526C45.534 103.391 45.985 102.446 46.6379 101.078Z" fill="#466FD9"/>
</svg>
