<svg width="137" height="85" viewBox="0 0 137 85" fill="none" xmlns="http://www.w3.org/2000/svg">
<path fill-rule="evenodd" clip-rule="evenodd" d="M6.40371 36.6702C-3.59632 17.6703 0.82731 37.9641 1.90371 40.6702C6.57038 57.3368 33.4037 91.67 78.9037 83.1701C124.404 74.6702 135.494 42.1702 136.904 26.6702C138.313 11.1702 113.904 -14.3297 89.9037 10.1702C85.4983 14.6673 81.3924 21.892 77.1783 29.307C70.6768 40.7469 63.9178 52.6401 55.4037 55.6703C45.9552 59.8703 34.0842 52.5991 29.4123 49.7374L29.4123 49.7374C28.2268 49.0113 27.5049 48.5691 27.4037 48.6703C27.2242 48.8497 28.5259 49.9951 30.2687 51.5286C33.3822 54.2683 37.9037 58.2469 37.9037 60.1703C37.9038 63.1703 16.4037 55.6701 6.40371 36.6702ZM7.77091 45.2331C7.2724 44.4666 7.00309 46.3172 7.99999 49C8.9969 51.6828 17.2434 69.378 47.6544 70.911C78.0653 72.4441 103.491 53.6647 102.993 52.8982C102.9 52.7559 102.018 53.2603 100.442 54.1616C93.5235 58.1172 73.2344 69.7178 47.6544 67.845C18.0562 65.678 9.26667 48.1953 7.93467 45.5459C7.85321 45.3838 7.79964 45.2773 7.77091 45.2331ZM111.897 46.0286C112.5 46 105.617 50.9685 105.059 50.9843C104.5 51 108 48.5 108 48.5C108 48.5 111.294 46.0573 111.897 46.0286ZM40.8757 58.1289C42.9386 58.7249 45.905 59.5819 48.5216 59.8685C50.9457 60.134 54.3961 59.857 57.0809 59.6415C59.34 59.4602 61.057 59.3224 61.1645 59.5879C61.3997 60.1689 53.3132 61.8944 48.5216 61.3685C44.1518 60.8889 38.0215 57.8685 38.2987 57.5495C38.4134 57.4176 39.4194 57.7082 40.8757 58.1289Z" fill="#466FD9"/>
</svg>
