<svg width="1210" height="347" viewBox="0 0 1210 347" fill="none" xmlns="http://www.w3.org/2000/svg">
<path fill-rule="evenodd" clip-rule="evenodd" d="M547.107 148.66C558.741 122.699 541.199 143.904 539.257 147.239C525.696 165.732 511.84 221.783 557.905 262.272C603.971 302.762 646.924 287.751 664.238 276.548C681.552 265.344 688.18 219.043 643.012 214.052C634.721 213.136 623.831 214.763 612.654 216.432C595.41 219.007 577.483 221.684 567.362 215.285C555.258 208.868 553.133 190.545 552.296 183.335C552.084 181.505 551.955 180.39 551.767 180.368C551.433 180.327 551.303 182.621 551.129 185.692L551.129 185.692C550.818 191.178 550.367 199.146 548.362 200.718C545.234 203.171 535.474 174.622 547.107 148.66ZM539.298 157.087C539.689 155.941 537.539 157.173 535.557 160.406C533.575 163.639 521.868 186.706 545.136 219.667C568.403 252.628 608.773 263.783 609.165 262.636C609.237 262.424 607.99 261.916 605.761 261.01C595.98 257.031 567.296 245.362 548.333 217.16C526.391 184.528 537.432 161.069 539.105 157.514L539.105 157.514C539.208 157.296 539.275 157.153 539.298 157.087ZM623.607 266.303C624.13 266.908 613.322 263.795 612.849 263.226C612.376 262.656 617.844 264.261 617.844 264.261C617.844 264.261 623.085 265.698 623.607 266.303ZM552.92 202.148C553.986 204.786 555.517 208.58 557.358 211.542C559.063 214.287 562.173 217.658 564.593 220.281C566.63 222.488 568.177 224.166 567.988 224.495C567.575 225.215 559.164 218.195 555.794 212.769C552.721 207.821 550.858 198.959 551.417 198.988C551.649 198.999 552.168 200.286 552.92 202.148Z" fill="#EFD340"/>
<path fill-rule="evenodd" clip-rule="evenodd" d="M1099.71 265.287C1071.82 270.922 1099.27 272.86 1103.11 272.499C1126.05 272.777 1179.7 251.452 1185.85 190.43C1192 129.408 1154.81 103.195 1135.62 95.6265C1116.44 88.0576 1074.92 109.592 1097.13 149.239C1101.2 156.517 1108.86 164.43 1116.72 172.551C1128.84 185.081 1141.44 198.108 1142.12 210.063C1143.94 223.642 1130.27 236.027 1124.9 240.901L1124.9 240.901L1124.89 240.901C1123.53 242.137 1122.7 242.891 1122.79 243.057C1122.95 243.352 1124.89 242.124 1127.49 240.479L1127.49 240.479C1132.14 237.541 1138.88 233.275 1141.33 233.992C1145.14 235.109 1127.59 259.652 1099.71 265.287ZM1111.1 266.739C1109.94 267.088 1112.2 268.12 1115.98 267.852C1119.76 267.584 1145.33 263.693 1158.62 225.596C1171.9 187.499 1157.5 148.171 1156.33 148.519C1156.12 148.584 1156.43 149.893 1156.99 152.233C1159.44 162.504 1166.63 192.625 1154.72 224.453C1140.93 261.28 1115.43 265.941 1111.56 266.648L1111.56 266.648C1111.33 266.691 1111.17 266.719 1111.1 266.739ZM1150.92 134.637C1151.11 133.86 1154.86 144.463 1154.67 145.179C1154.48 145.895 1152.61 140.514 1152.61 140.514C1152.61 140.514 1150.73 135.414 1150.92 134.637ZM1139.84 229.452C1141.36 227.051 1143.56 223.598 1144.9 220.378C1146.14 217.395 1147.07 212.904 1147.8 209.41C1148.41 206.47 1148.88 204.235 1149.25 204.198C1150.08 204.115 1149.26 215.04 1146.81 220.937C1144.57 226.315 1138.44 232.984 1138.14 232.513C1138.01 232.317 1138.76 231.147 1139.84 229.452Z" fill="#466FD9"/>
<path fill-rule="evenodd" clip-rule="evenodd" d="M257.96 63.377C244.71 88.552 250.571 61.6625 251.998 58.077C258.181 35.9935 293.735 -9.49831 354.023 1.76411C414.311 13.0265 429.006 56.0894 430.874 76.627C432.742 97.1647 400.399 130.952 368.598 98.4898C362.761 92.531 357.321 82.9583 351.737 73.1332C343.123 57.9752 334.167 42.2167 322.886 38.2016C310.366 32.6366 294.637 42.271 288.447 46.0627L288.447 46.0628L288.446 46.0629C286.876 47.0249 285.919 47.6108 285.785 47.4767C285.547 47.239 287.272 45.7213 289.581 43.6894L289.581 43.6893C293.707 40.0592 299.698 34.7876 299.698 32.2391C299.698 28.2641 271.21 38.202 257.96 63.377ZM259.772 52.0311C259.111 53.0467 258.754 50.5947 260.075 47.0399C261.396 43.4852 272.323 20.0389 312.618 18.0076C352.913 15.9763 386.602 40.8592 385.942 41.8748C385.819 42.0633 384.65 41.395 382.562 40.2008C373.395 34.9595 346.512 19.5886 312.618 22.0701C273.4 24.9414 261.754 48.1062 259.989 51.6167L259.989 51.6167C259.881 51.8314 259.81 51.9726 259.772 52.0311ZM397.74 50.9769C398.538 51.0148 389.419 44.4315 388.679 44.4106C387.939 44.3898 392.576 47.7023 392.576 47.7023C392.576 47.7023 396.941 50.9389 397.74 50.9769ZM303.636 34.9439C306.369 34.1543 310.3 33.0188 313.767 32.639C316.979 32.2872 321.55 32.6542 325.108 32.9397C328.101 33.18 330.376 33.3626 330.519 33.0108C330.83 32.241 320.116 29.9547 313.767 30.6515C307.977 31.287 299.854 35.289 300.221 35.7116C300.373 35.8865 301.706 35.5014 303.636 34.9439Z" fill="#A2D794"/>
<path fill-rule="evenodd" clip-rule="evenodd" d="M182.631 218.582C201.037 196.889 189.471 221.862 187.299 225.051C176.463 245.263 131.87 281.938 75.4718 257.84C19.0737 233.742 14.0914 188.514 16.7324 168.062C19.3733 147.609 58.2877 121.66 82.271 160.259C86.6734 167.344 89.9027 177.87 93.2172 188.674C98.3308 205.342 103.647 222.671 113.786 229.042C124.796 237.196 142.243 231.211 149.11 228.855L149.11 228.855L149.11 228.855C150.852 228.258 151.913 227.894 152.015 228.054C152.195 228.337 150.182 229.444 147.486 230.925L147.486 230.925C142.67 233.572 135.677 237.415 135.123 239.903C134.259 243.783 164.225 240.275 182.631 218.582ZM178.396 229.263C179.262 228.415 179.077 230.886 177.015 234.069C174.953 237.252 159.191 257.762 119.418 250.986C79.6454 244.209 52.1701 212.598 53.0357 211.75C53.1964 211.593 54.192 212.5 55.9711 214.119C63.7794 221.228 86.6786 242.075 120.301 247.02C159.206 252.743 175.609 232.663 178.095 229.621L178.095 229.62C178.247 229.434 178.347 229.312 178.396 229.263ZM43.4982 200.301C42.727 200.09 50.1969 208.498 50.9149 208.68C51.633 208.861 47.8269 204.62 47.8269 204.62C47.8269 204.62 44.2695 200.512 43.4982 200.301ZM131.867 236.407C129.027 236.583 124.944 236.837 121.477 236.454C118.265 236.099 113.883 234.747 110.472 233.695C107.603 232.81 105.422 232.137 105.207 232.45C104.735 233.134 114.696 237.694 121.045 238.394C126.835 239.033 135.633 236.892 135.366 236.4C135.256 236.196 133.871 236.282 131.867 236.407Z" fill="#EAB144"/>
<path fill-rule="evenodd" clip-rule="evenodd" d="M808.605 197.669C789.839 176.288 801.822 201.063 804.046 204.216C815.219 224.243 860.42 260.166 916.407 235.127C972.394 210.088 976.618 164.784 973.635 144.378C970.652 123.972 931.308 98.6786 907.975 137.674C903.691 144.832 900.639 155.411 897.506 166.268C892.672 183.02 887.647 200.435 877.616 206.975C866.744 215.312 849.199 209.62 842.294 207.38L842.294 207.38L842.293 207.38C840.542 206.811 839.475 206.465 839.376 206.627C839.2 206.914 841.232 207.986 843.952 209.422L843.952 209.422C848.811 211.988 855.868 215.713 856.464 218.191C857.393 222.056 827.372 219.051 808.605 197.669ZM813.018 208.278C812.138 207.445 812.364 209.912 814.479 213.06C816.594 216.207 832.698 236.451 872.351 229.01C912.005 221.568 938.947 189.501 938.068 188.668C937.904 188.514 936.924 189.437 935.172 191.086C927.484 198.324 904.937 219.552 871.402 225.06C832.599 231.433 815.862 211.631 813.326 208.63L813.326 208.63C813.17 208.446 813.068 208.326 813.018 208.278ZM947.412 177.061C948.18 176.838 940.852 185.37 940.137 185.563C939.422 185.756 943.157 181.452 943.157 181.452C943.157 181.452 946.645 177.285 947.412 177.061ZM859.661 214.641C862.503 214.77 866.59 214.956 870.05 214.515C873.255 214.106 877.615 212.681 881.007 211.572C883.861 210.639 886.03 209.93 886.251 210.239C886.734 210.914 876.85 215.641 870.514 216.447C864.736 217.182 855.903 215.189 856.161 214.693C856.268 214.487 857.654 214.55 859.661 214.641Z" fill="#EE6565"/>
<path d="M73.0791 34.904C74.3324 32.648 75.3351 32.3347 76.0871 33.964C76.3378 34.716 77.5911 35.9067 79.8471 37.536C82.1031 39.1653 83.6071 40.9827 84.3591 42.988C85.1111 45.7453 85.1111 47.7507 84.3591 49.004C83.6071 50.132 81.5391 51.5733 78.1551 53.328C74.0191 55.208 71.3871 56.148 70.2591 56.148C69.5071 56.148 68.5044 56.5867 67.2511 57.464C65.9978 58.3413 65.3711 58.968 65.3711 59.344C65.3711 59.5947 68.3791 61.7253 74.3951 65.736C75.5231 66.3627 76.4631 67.6787 77.2151 69.684C77.9671 71.6893 78.3431 73.7573 78.3431 75.888C78.3431 77.8933 78.5938 78.896 79.0951 78.896C79.8471 78.896 82.6044 78.3947 87.3671 77.392C92.1298 76.264 94.8871 75.5747 95.6391 75.324C96.6418 74.948 99.0231 74.6347 102.783 74.384C106.668 74.008 108.799 73.5693 109.175 73.068C109.676 72.5667 109.676 68.8067 109.175 61.788C108.423 51.7613 108.674 46.372 109.927 45.62C110.303 45.4947 111.306 45.7453 112.935 46.372C115.567 47.3747 117.071 48.628 117.447 50.132C117.572 50.3827 117.51 50.5707 117.259 50.696C116.758 51.072 116.695 51.8867 117.071 53.14C117.572 54.268 117.823 57.652 117.823 63.292V71.752L121.395 71.376C134.931 69.496 143.203 68.556 146.211 68.556C147.84 68.556 148.843 68.18 149.219 67.428C149.595 66.5507 149.971 63.3547 150.347 57.84C151.099 46.0587 152.039 39.9173 153.167 39.416C153.543 39.2907 153.731 38.9773 153.731 38.476C153.731 36.0947 155.298 35.4053 158.431 36.408C160.436 37.2853 162.316 38.5387 164.071 40.168C165.951 42.1733 167.518 44.4293 168.771 46.936C169.648 48.6907 170.15 50.0693 170.275 51.072C170.526 51.9493 170.463 53.7667 170.087 56.524C169.836 60.5347 169.586 63.292 169.335 64.796C169.21 65.7987 169.21 66.488 169.335 66.864C169.46 67.1147 169.774 67.24 170.275 67.24C171.403 67.24 172.03 66.9267 172.155 66.3C172.406 65.6733 173.095 65.6733 174.223 66.3C177.607 67.804 181.242 68.556 185.127 68.556C186.631 68.556 188.135 69.308 189.639 70.812C191.268 72.316 192.334 73.82 192.835 75.324C193.336 76.7027 193.211 77.768 192.459 78.52C191.958 78.7707 191.707 79.3973 191.707 80.4C191.707 81.4027 191.08 82.5307 189.827 83.784C189.075 84.6613 188.386 85.1627 187.759 85.288C187.258 85.4133 186.318 85.3507 184.939 85.1C182.808 84.724 181.555 84.348 181.179 83.972C180.427 83.3453 178.798 82.7187 176.291 82.092C173.91 81.4653 171.716 81.0893 169.711 80.964L165.763 80.588L165.199 85.1C164.823 87.9827 164.384 90.176 163.883 91.68C163.507 93.184 163.319 97.508 163.319 104.652C163.444 111.671 163.194 115.744 162.567 116.872C162.066 117.875 161.815 120.131 161.815 123.64C161.815 127.024 161.439 129.468 160.687 130.972C159.935 132.476 159.684 133.98 159.935 135.484C160.311 137.239 159.496 141.876 157.491 149.396C156.864 151.777 155.736 153.908 154.107 155.788C152.603 157.543 151.162 158.483 149.783 158.608C149.031 158.608 148.655 158.921 148.655 159.548C148.655 160.175 148.404 160.613 147.903 160.864C147.402 160.989 145.96 161.052 143.579 161.052C140.822 161.177 138.566 159.297 136.811 155.412L135.495 152.592L128.915 153.156C122.022 153.657 118.575 154.66 118.575 156.164C118.575 156.54 118.262 156.853 117.635 157.104C117.008 157.229 116.256 157.229 115.379 157.104C114.502 156.853 113.812 156.477 113.311 155.976C112.559 155.099 112.183 154.409 112.183 153.908C112.183 153.281 111.807 152.843 111.055 152.592C110.428 152.341 109.739 150.837 108.987 148.08C107.608 143.944 107.608 138.931 108.987 133.04C109.488 130.784 109.739 123.201 109.739 110.292L109.927 90.74L107.671 90.364C106.418 90.2387 105.352 90.4893 104.475 91.116C103.598 91.6173 103.347 92.3067 103.723 93.184C103.974 93.8107 103.66 94.2493 102.783 94.5C100.026 95.0013 97.2684 93.6853 94.5111 90.552L92.0671 87.544L85.1111 88.296C80.2231 88.9227 77.2778 89.424 76.2751 89.8C75.2724 90.0507 74.6458 90.74 74.3951 91.868C73.7684 94.124 72.7031 96.6933 71.1991 99.576C69.6951 102.333 68.1911 104.401 66.6871 105.78C64.0551 108.287 63.3031 109.665 64.4311 109.916C65.3084 110.292 68.6298 110.167 74.3951 109.54C77.7791 109.289 80.0978 109.227 81.3511 109.352C82.6044 109.352 84.4218 109.728 86.8031 110.48C91.8164 112.109 95.0124 113.613 96.3911 114.992C97.8951 116.245 98.7098 118.313 98.8351 121.196C98.8351 122.324 98.3964 123.452 97.5191 124.58C96.7671 125.583 94.6991 127.525 91.3151 130.408C89.1844 132.413 88.1191 133.792 88.1191 134.544C88.1191 135.171 87.5551 136.048 86.4271 137.176C85.6751 137.803 85.2991 138.367 85.2991 138.868C85.2991 139.244 85.6124 140.247 86.2391 141.876C88.2444 147.265 87.9311 151.84 85.2991 155.6C85.1738 155.851 83.0431 156.227 78.9071 156.728C74.8964 157.104 72.1391 157.292 70.6351 157.292C69.7578 157.292 68.5044 157.543 66.8751 158.044C65.3711 158.42 63.2404 158.671 60.4831 158.796C58.3524 158.796 57.0991 158.921 56.7231 159.172C56.3471 159.423 55.9711 160.112 55.5951 161.24C54.9684 163.621 53.8404 164.624 52.2111 164.248C50.5818 163.747 48.8271 162.117 46.9471 159.36C45.4431 157.104 43.8764 152.717 42.2471 146.2C41.7458 143.443 41.2444 141.187 40.7431 139.432C39.9911 137.552 39.2391 134.795 38.4871 131.16C37.7351 127.525 37.3591 125.269 37.3591 124.392C37.3591 123.64 37.7351 122.7 38.4871 121.572C39.3644 120.319 40.1791 119.692 40.9311 119.692C41.0564 119.692 42.3724 119.003 44.8791 117.624C49.0151 114.992 52.0231 110.229 53.9031 103.336C54.9058 99.4507 55.6578 96.944 56.1591 95.816C56.4098 95.064 56.4098 94.6253 56.1591 94.5C55.9084 94.3747 55.1564 94.4373 53.9031 94.688C50.5191 95.1893 46.9471 96.1293 43.1871 97.508C39.5524 98.8867 36.8578 100.265 35.1031 101.644C32.7218 103.649 31.0298 104.652 30.0271 104.652C29.1498 104.652 28.5231 104.965 28.1471 105.592C27.6458 106.219 26.6431 106.407 25.1391 106.156C23.6351 105.905 21.9431 105.216 20.0631 104.088C18.1831 102.835 16.9298 101.581 16.3031 100.328C15.9271 99.576 15.8644 99.012 16.1151 98.636C16.4911 98.1347 17.3058 97.3827 18.5591 96.38C22.1938 93.748 28.7738 91.0533 38.2991 88.296C51.9604 84.536 59.1044 82.3427 59.7311 81.716C60.2324 81.4653 60.9218 78.708 61.7991 73.444C62.8018 68.18 63.2404 64.796 63.1151 63.292C63.1151 61.2867 62.5511 60.848 61.4231 61.976C60.9218 62.6027 60.2324 62.916 59.3551 62.916C58.4778 62.916 56.7231 63.4173 54.0911 64.42C52.0858 65.4227 50.0804 65.9867 48.0751 66.112C46.0698 66.2373 44.6911 65.924 43.9391 65.172C43.8138 64.796 43.7511 64.5453 43.7511 64.42C43.7511 64.1693 44.1271 63.7307 44.8791 63.104C45.7564 62.352 46.7591 61.4747 47.8871 60.472C49.1404 59.344 50.9578 57.7773 53.3391 55.772C56.8484 52.8893 62.2378 48.0013 69.5071 41.108C71.1364 39.604 71.9511 38.5387 71.9511 37.912C71.9511 37.2853 72.3271 36.2827 73.0791 34.904ZM147.527 82.28C147.527 81.6533 147.276 81.2147 146.775 80.964C146.274 80.7133 144.895 80.588 142.639 80.588C140.007 80.4627 136.498 80.7133 132.111 81.34C127.724 81.8413 125.343 82.28 124.967 82.656C124.591 83.032 123.588 83.22 121.959 83.22C120.455 83.22 119.452 83.596 118.951 84.348C118.7 85.3507 118.763 88.484 119.139 93.748C119.64 99.012 120.079 101.644 120.455 101.644C120.956 101.644 121.708 101.143 122.711 100.14C123.839 99.1373 125.03 98.8867 126.283 99.388C127.536 99.764 129.792 99.8267 133.051 99.576C135.432 99.3253 136.936 99.2627 137.563 99.388C138.19 99.5133 138.816 100.015 139.443 100.892C140.32 102.145 140.696 104.213 140.571 107.096C140.446 109.979 139.944 112.36 139.067 114.24C138.19 115.493 137.5 116.371 136.999 116.872C136.498 117.248 135.495 117.561 133.991 117.812C131.735 118.188 128.978 118.313 125.719 118.188L120.831 117.812L121.207 127.4C121.583 133.792 121.834 137.301 121.959 137.928C122.335 139.181 123.275 139.119 124.779 137.74C125.907 136.487 128.288 136.299 131.923 137.176C135.808 137.803 138.315 136.863 139.443 134.356C140.696 131.348 141.887 125.771 143.015 117.624C143.391 114.491 143.892 110.355 144.519 105.216C145.271 100.077 145.898 95.1893 146.399 90.552L147.527 82.28ZM77.2151 123.452C77.3404 122.575 77.1524 122.073 76.6511 121.948C76.2751 121.823 74.9591 121.697 72.7031 121.572C68.9431 121.572 65.1831 121.885 61.4231 122.512C57.6631 123.139 55.0938 124.016 53.7151 125.144C52.9631 125.645 52.5244 126.209 52.3991 126.836C52.2738 127.337 52.3364 128.591 52.5871 130.596C52.9631 134.356 54.1538 138.931 56.1591 144.32C56.4098 145.072 56.6604 145.573 56.9111 145.824C57.2871 145.949 57.8511 145.949 58.6031 145.824C61.6111 145.072 64.6818 143.631 67.8151 141.5C71.0738 139.244 72.7031 137.489 72.7031 136.236C72.7031 135.359 73.0164 134.356 73.6431 133.228C75.6484 129.217 76.8391 125.959 77.2151 123.452Z" fill="#922121" fill-opacity="0.9"/>
<path d="M786.464 65.548C787.467 65.172 788.971 65.2347 790.976 65.736C793.107 66.2373 794.799 66.9893 796.052 67.992C797.682 69.2453 798.622 70.4987 798.872 71.752C799.123 72.88 798.747 74.6973 797.744 77.204C796.867 78.9587 796.24 80.024 795.864 80.4C795.488 80.776 794.674 80.964 793.42 80.964C792.167 80.964 790.914 80.588 789.66 79.836C788.532 79.084 787.968 78.332 787.968 77.58C787.968 76.828 787.592 76.2013 786.84 75.7C786.088 75.0733 785.65 73.3187 785.524 70.436C785.524 67.5533 785.838 65.924 786.464 65.548ZM795.864 22.12C796.366 21.744 797.807 21.6187 800.188 21.744C802.57 21.744 804.262 21.9947 805.264 22.496L810.34 25.316C812.471 26.444 814.1 27.6973 815.228 29.076C815.98 29.9533 816.356 30.956 816.356 32.084C816.356 33.0867 815.98 35.5307 815.228 39.416C814.978 39.9173 814.79 40.4813 814.664 41.108C814.664 41.6093 814.664 41.9853 814.664 42.236C814.664 42.4867 814.664 42.612 814.664 42.612C814.79 42.612 815.479 42.2987 816.732 41.672C818.111 41.0453 819.928 41.108 822.184 41.86C825.694 42.612 827.824 43.3013 828.576 43.928C829.454 44.5547 830.08 45.8707 830.456 47.876C830.832 50.508 830.519 52.2627 829.516 53.14C828.89 54.1427 827.762 54.7067 826.132 54.832C824.503 54.832 822.936 54.3933 821.432 53.516C819.678 52.764 816.732 52.3253 812.596 52.2C808.46 51.9493 804.888 52.0747 801.88 52.576C798.622 53.2027 795.802 54.0173 793.42 55.02C791.039 56.0227 789.598 56.9627 789.096 57.84C788.595 58.7173 787.78 59.0933 786.652 58.968C785.65 58.7173 784.584 58.0907 783.456 57.088C782.328 55.96 781.827 54.832 781.952 53.704C782.203 52.7013 784.083 51.3227 787.592 49.568C791.227 47.688 795.05 46.184 799.06 45.056C802.695 43.928 804.638 43.2387 804.888 42.988C805.264 42.7373 804.826 41.7973 803.572 40.168C800.69 36.1573 799.248 33.4627 799.248 32.084C799.248 31.4573 798.559 30.3293 797.18 28.7C796.428 27.572 795.864 26.3187 795.488 24.94C795.238 23.5613 795.363 22.6213 795.864 22.12ZM858.092 17.232C858.594 16.6053 859.158 16.3547 859.784 16.48C860.536 16.6053 861.852 17.2947 863.732 18.548C865.988 20.1773 867.367 21.744 867.868 23.248C868.495 24.6267 868.808 27.6973 868.808 32.46V40.544L871.44 39.98C873.195 39.604 875.702 39.4787 878.96 39.604C881.843 39.604 883.786 40.0427 884.788 40.92C885.916 41.7973 886.48 43.3013 886.48 45.432C886.48 48.064 885.352 49.944 883.096 51.072C880.966 52.2 878.208 52.3253 874.824 51.448C872.443 50.9467 870.876 50.9467 870.124 51.448C869.498 51.9493 869.184 53.328 869.184 55.584C869.31 58.216 869.184 59.9707 868.808 60.848C868.432 61.6 868.746 62.0387 869.748 62.164C870.751 62.164 873.759 62.1013 878.772 61.976C891.556 61.4747 898.826 63.1667 900.58 67.052C901.207 68.18 900.956 70.3107 899.828 73.444C898.7 76.452 897.635 77.956 896.632 77.956C896.131 77.956 895.316 79.1467 894.188 81.528C893.06 83.9093 892.12 85.7267 891.368 86.98C890.616 88.2333 890.24 89.8627 890.24 91.868C890.24 94.5 889.676 96.1293 888.548 96.756C887.546 97.3827 884.663 97.696 879.9 97.696C873.634 97.696 870.438 98.072 870.312 98.824C870.312 99.2 870.563 99.764 871.064 100.516C871.566 101.644 871.566 102.897 871.064 104.276C870.187 105.905 870.062 107.284 870.688 108.412C871.315 109.415 873.195 111.044 876.328 113.3C879.838 115.932 882.344 118 883.848 119.504C885.102 120.757 887.42 122.575 890.804 124.956C894.188 127.212 896.194 128.34 896.82 128.34C897.322 128.34 897.635 128.528 897.76 128.904C898.011 129.28 899.452 130.22 902.084 131.724C904.716 133.103 906.972 134.105 908.852 134.732C911.108 135.484 912.863 136.361 914.116 137.364C915.495 138.367 916.874 138.993 918.253 139.244C919.631 139.495 920.32 139.871 920.32 140.372C920.32 140.748 921.26 141.249 923.14 141.876C925.146 142.377 927.277 143.756 929.533 146.012C931.914 148.143 933.105 150.085 933.105 151.84C933.105 153.595 932.791 154.66 932.165 155.036C931.538 155.412 928.592 155.537 923.328 155.412C918.064 155.287 914.43 155.788 912.424 156.916C910.419 157.919 908.852 158.357 907.724 158.232C906.596 158.107 904.779 157.417 902.272 156.164C894.126 151.777 884.162 143.004 872.38 129.844C870.124 127.337 868.746 126.084 868.244 126.084C867.868 126.084 867.806 130.909 868.056 140.56C868.432 150.211 868.182 157.668 867.304 162.932C866.552 168.071 865.8 171.016 865.048 171.768C864.296 172.645 863.92 173.46 863.92 174.212C863.92 175.089 863.168 176.405 861.664 178.16C860.286 179.915 859.283 180.792 858.656 180.792C858.155 180.792 857.654 180.228 857.152 179.1C856.651 178.097 856.212 177.22 855.836 176.468C854.708 174.964 853.706 173.021 852.828 170.64C852.076 168.384 851.826 167.131 852.076 166.88C853.58 165.251 853.894 152.592 853.016 128.904C853.016 127.776 852.828 127.149 852.452 127.024C852.202 126.773 851.7 127.087 850.948 127.964C850.196 128.591 849.068 129.28 847.564 130.032C846.06 130.784 844.744 131.787 843.616 133.04C835.971 139.933 830.268 144.696 826.508 147.328C823.626 149.333 822.059 150.524 821.808 150.9C821.432 151.527 819.176 153.219 815.04 155.976C810.904 158.608 808.586 159.924 808.084 159.924C807.207 159.924 806.58 160.175 806.204 160.676C805.954 161.177 805.578 161.428 805.076 161.428C804.7 161.428 804.512 161.177 804.512 160.676C804.512 160.049 809.839 154.347 820.492 143.568C831.271 132.664 837.412 126.209 838.916 124.204C840.546 122.199 842.112 120.319 843.616 118.564C845.12 116.809 845.872 115.681 845.872 115.18C845.872 114.679 846.186 114.052 846.812 113.3C847.815 112.172 849.006 110.229 850.384 107.472C851.888 104.715 852.64 102.897 852.64 102.02C852.64 101.017 852.264 100.516 851.512 100.516C850.76 100.516 850.384 101.143 850.384 102.396C850.384 103.524 849.758 104.213 848.504 104.464C847.376 104.715 845.935 104.213 844.18 102.96C842.551 101.581 841.172 99.8267 840.044 97.696C839.418 96.3173 838.728 95.44 837.976 95.064C837.35 94.5627 835.47 93.9987 832.336 93.372L826.132 91.868L815.228 93.748C807.834 94.876 804.074 95.5027 803.948 95.628C803.823 95.628 803.886 95.816 804.136 96.192C804.387 96.4427 804.7 96.8813 805.076 97.508C805.578 98.0093 806.142 98.5107 806.768 99.012C808.774 101.017 809.776 102.271 809.776 102.772C810.027 104.777 810.403 105.968 810.904 106.344C811.155 106.469 812.659 106.219 815.416 105.592C817.296 104.84 819.615 104.589 822.372 104.84C825.13 105.091 826.884 105.529 827.636 106.156C828.012 106.407 828.451 107.848 828.952 110.48C829.328 112.235 829.454 113.363 829.328 113.864C829.328 114.24 828.952 114.741 828.2 115.368C826.947 116.12 824.064 116.559 819.552 116.684C815.166 116.684 812.659 116.935 812.032 117.436C811.531 117.937 810.967 120.444 810.34 124.956C809.839 129.468 809.338 131.975 808.836 132.476C808.46 132.977 808.272 133.667 808.272 134.544C808.272 135.296 807.896 136.361 807.144 137.74L804.512 143.38C803.51 145.636 802.695 147.265 802.068 148.268L800.752 150.9C800.251 151.652 799.75 152.592 799.248 153.72C798.747 154.723 798.246 155.224 797.744 155.224C797.243 155.224 796.992 155.663 796.992 156.54C796.992 157.041 795.175 159.109 791.54 162.744C788.031 166.253 786.026 168.008 785.524 168.008C784.772 168.008 784.02 168.509 783.268 169.512C781.89 171.016 779.696 172.833 776.688 174.964C773.806 177.095 772.114 178.035 771.612 177.784C771.487 177.533 771.8 176.781 772.552 175.528L774.244 172.332C775.623 169.951 778.004 166.629 781.388 162.368C786.402 156.101 789.786 150.837 791.54 146.576C793.295 142.315 794.486 136.424 795.112 128.904L795.676 121.384L792.48 122.888C790.224 123.64 788.407 124.643 787.028 125.896C785.148 127.651 782.767 127.525 779.884 125.52C778.756 124.768 778.318 123.452 778.568 121.572C778.819 119.817 779.571 118.501 780.824 117.624C782.078 116.747 784.96 115.556 789.472 114.052C792.731 112.924 794.799 112.109 795.676 111.608C796.554 111.107 796.992 110.48 796.992 109.728C796.992 108.475 797.368 106.219 798.12 102.96C798.998 99.576 799.687 97.5707 800.188 96.944C800.69 96.4427 800.752 96.1293 800.376 96.004C799.875 96.004 797.431 96.6307 793.044 97.884C781.514 101.017 774.307 103.837 771.424 106.344C768.792 108.976 766.035 109.415 763.152 107.66C761.648 106.657 760.896 105.529 760.896 104.276C760.896 102.647 761.774 101.268 763.528 100.14C765.283 99.012 769.482 97.1947 776.124 94.688C784.271 91.68 789.911 89.7373 793.044 88.86C793.42 88.7347 795.802 85.4133 800.188 78.896C804.575 72.3787 807.144 68.2427 807.896 66.488L809.4 63.104C810.152 61.6 810.528 60.66 810.528 60.284C810.654 59.2813 812.032 57.5893 814.664 55.208C815.542 54.456 816.168 54.08 816.544 54.08C816.92 54.08 817.672 54.3933 818.8 55.02C823.814 57.5267 826.32 59.908 826.32 62.164C826.32 63.1667 825.568 64.796 824.064 67.052C822.686 69.308 821.683 70.436 821.056 70.436C820.68 70.436 820.116 71.188 819.364 72.692C818.612 74.0707 817.234 75.8253 815.228 77.956C813.348 79.9613 812.158 80.964 811.656 80.964C811.155 80.964 810.403 81.4027 809.4 82.28C808.398 83.1573 807.395 83.784 806.392 84.16C806.016 84.2853 805.703 84.4733 805.452 84.724C805.327 84.9747 805.327 85.1627 805.452 85.288C805.703 85.4133 807.896 85.0373 812.032 84.16C816.168 83.2827 820.179 82.28 824.064 81.152C826.822 80.4 829.14 80.024 831.02 80.024L833.84 79.836L834.216 75.512C834.342 72.6293 834.467 71.1253 834.592 71C834.843 70.8747 835.72 70.248 837.224 69.12C839.48 67.7413 844.055 66.112 850.948 64.232L854.144 63.48V58.404C854.144 56.0227 854.082 54.5813 853.956 54.08C853.831 53.4533 853.392 53.14 852.64 53.14C851.763 53.14 851.136 53.328 850.76 53.704C850.259 54.5813 848.943 55.208 846.812 55.584C844.807 55.8347 842.99 55.772 841.36 55.396C838.227 54.5187 837.224 53.4533 838.352 52.2C838.854 51.448 838.979 50.696 838.728 49.944C838.478 49.192 838.666 48.44 839.292 47.688C839.794 46.8107 841.736 45.7453 845.12 44.492C848.63 43.2387 851.136 42.612 852.64 42.612H854.896V33.4C854.896 25.3787 855.962 19.9893 858.092 17.232ZM879.9 71C879.399 70.4987 877.707 70.1853 874.824 70.06C871.942 69.9347 870.375 70.1227 870.124 70.624C869.623 71.1253 869.247 73.0053 868.996 76.264C868.871 79.5227 868.934 82.7813 869.184 86.04C869.184 87.0427 869.372 87.6067 869.748 87.732C870.124 87.732 871.252 87.6067 873.132 87.356C875.639 86.98 877.206 86.5413 877.832 86.04C878.584 85.4133 878.96 84.348 878.96 82.844C878.96 81.2147 879.211 78.9587 879.712 76.076C880.339 73.1933 880.402 71.5013 879.9 71ZM842.488 76.264C842.739 77.1413 843.052 78.2067 843.428 79.46C843.93 80.7133 844.807 82.5933 846.06 85.1C847.314 87.4813 847.94 89.048 847.94 89.8C847.94 90.552 848.755 90.8027 850.384 90.552C852.014 90.176 852.954 89.8627 853.204 89.612C853.455 89.3613 853.58 86.4787 853.58 80.964C853.58 75.4493 853.518 72.6293 853.392 72.504C852.64 72.0027 850.071 72.4413 845.684 73.82C844.306 74.4467 843.366 74.8853 842.864 75.136C842.363 75.3867 842.238 75.7627 842.488 76.264Z" fill="#922121" fill-opacity="0.9"/>
<path d="M568.573 40.872C569.074 40.12 569.513 39.744 569.889 39.744C570.265 39.744 571.581 40.9347 573.837 43.316C576.218 45.6973 577.722 47.452 578.349 48.58C579.226 50.3347 580.856 57.2907 583.237 69.448L585.305 79.224C586.308 84.2373 586.245 87.496 585.117 89C584.616 89.752 583.425 89.8147 581.545 89.188C579.665 88.5613 578.349 87.872 577.597 87.12C576.97 86.368 576.218 85.052 575.341 83.172C574.464 81.1667 574.025 79.788 574.025 79.036C574.025 77.4067 572.082 77.532 568.197 79.412C566.066 80.54 564.562 81.104 563.685 81.104C562.682 81.104 561.429 80.352 559.925 78.848C558.546 77.2187 557.857 75.9027 557.857 74.9C557.857 73.8973 557.544 73.2707 556.917 73.02C556.416 72.644 557.293 71.7667 559.549 70.388C559.674 70.388 559.8 70.3253 559.925 70.2C562.432 68.5707 564.124 67.3173 565.001 66.44C566.004 65.5627 567.257 64.9987 568.761 64.748L571.205 64.56L570.829 59.484C570.704 56.2253 570.39 53.9693 569.889 52.716C569.262 51.0867 568.824 48.8933 568.573 46.136C568.322 43.3787 568.322 41.624 568.573 40.872ZM609.557 71.14C610.936 68.508 611.813 65.7507 612.189 62.868C612.565 59.86 613.317 55.7867 614.445 50.648C615.573 45.5093 616.325 42.0627 616.701 40.308C617.202 38.428 618.08 36.4853 619.333 34.48C620.586 32.3493 621.401 31.284 621.777 31.284C622.153 31.284 623.908 32.412 627.041 34.668C630.3 36.7987 633.12 38.804 635.501 40.684C636.629 41.5613 637.193 42.188 637.193 42.564C637.193 42.8147 636.88 43.504 636.253 44.632C635.25 46.136 634.06 47.7653 632.681 49.52C631.302 51.1493 630.613 52.716 630.613 54.22C630.613 55.724 630.174 57.2907 629.297 58.92C628.545 60.424 628.232 61.364 628.357 61.74C628.608 61.9907 630.112 61.8653 632.869 61.364C635.626 60.7373 638.885 60.2987 642.645 60.048C645.277 59.672 647.032 59.6093 647.909 59.86C648.786 59.9853 649.789 60.424 650.917 61.176C652.672 62.4293 653.486 63.996 653.361 65.876C653.361 67.6307 652.985 69.0093 652.233 70.012C651.606 70.8893 651.293 71.704 651.293 72.456C651.293 73.208 650.478 74.3987 648.849 76.028C647.345 77.6573 645.841 78.5973 644.337 78.848C642.958 78.9733 642.081 78.4093 641.705 77.156C641.454 76.2787 641.016 75.7773 640.389 75.652C639.888 75.5267 638.509 75.5893 636.253 75.84C632.744 76.3413 630.676 76.78 630.049 77.156C629.422 77.6573 628.42 77.7827 627.041 77.532C625.662 77.2813 624.346 76.7173 623.093 75.84C622.09 75.2133 621.276 75.088 620.649 75.464C620.022 75.7147 619.208 76.9053 618.205 79.036C615.698 83.924 612.189 87.9347 607.677 91.068C605.546 92.4467 604.293 93.512 603.917 94.264C603.666 94.8907 604.042 95.58 605.045 96.332C605.672 96.9587 605.985 99.5907 605.985 104.228V110.996L614.257 110.62C619.772 110.244 628.357 109.993 640.013 109.868C651.794 109.617 658.938 109.116 661.445 108.364C663.576 107.988 666.27 107.925 669.529 108.176C672.788 108.301 675.42 108.803 677.425 109.68C679.18 110.432 680.684 111.685 681.937 113.44C683.19 115.069 683.817 116.824 683.817 118.704C683.942 120.584 683.19 122.213 681.561 123.592C679.932 124.971 677.55 126.099 674.417 126.976C671.409 127.728 669.216 127.791 667.837 127.164C666.709 126.663 663.576 126.412 658.437 126.412C653.424 126.287 647.596 125.973 640.953 125.472C634.31 124.845 626.352 124.783 617.077 125.284C607.928 125.785 602.977 126.412 602.225 127.164C601.598 128.041 600.282 130.485 598.277 134.496C596.272 138.507 595.269 140.763 595.269 141.264C595.269 141.765 598.277 142.079 604.293 142.204C610.309 142.204 614.508 142.392 616.889 142.768C618.644 143.019 619.772 143.081 620.273 142.956C620.774 142.831 621.464 142.267 622.341 141.264C623.469 140.136 624.722 139.509 626.101 139.384C627.48 139.259 628.482 139.697 629.109 140.7C629.861 141.452 631.992 142.455 635.501 143.708C641.392 145.839 644.588 147.969 645.089 150.1C645.34 151.103 644.776 153.045 643.397 155.928C642.018 158.685 640.577 160.691 639.073 161.944C637.82 163.197 636.942 164.325 636.441 165.328C635.188 167.208 633.621 169.401 631.741 171.908C629.986 174.415 628.67 175.981 627.793 176.608C626.414 177.736 625.036 178.488 623.657 178.864C622.028 179.115 621.276 179.428 621.401 179.804C621.526 180.18 622.404 180.744 624.033 181.496C625.913 182.499 627.041 183.501 627.417 184.504C627.793 185.507 627.417 186.885 626.289 188.64C625.036 190.645 624.033 192.525 623.281 194.28C621.777 197.539 618.832 198.604 614.445 197.476C607.176 195.847 600.47 195.095 594.329 195.22C589.19 195.471 586.245 195.784 585.493 196.16C584.866 196.536 584.553 197.476 584.553 198.98C584.553 201.863 583.237 202.615 580.605 201.236C579.477 200.735 578.286 199.795 577.033 198.416C575.905 197.037 575.341 195.972 575.341 195.22C575.341 194.343 574.213 191.397 571.957 186.384C571.205 184.88 570.516 182.687 569.889 179.804C568.009 173.537 566.693 169.151 565.941 166.644C564.938 164.388 564.625 161.568 565.001 158.184L565.377 153.296L571.957 150.1L578.161 147.28L580.981 141.452C582.736 137.567 583.676 134.371 583.801 131.864V128.48L579.665 128.856C576.657 129.232 572.646 129.984 567.633 131.112C562.62 132.115 559.486 132.867 558.233 133.368C551.716 136.251 546.953 137.692 543.945 137.692C542.441 137.692 541.564 137.943 541.313 138.444C541.188 138.82 540.686 139.071 539.809 139.196C538.932 139.321 538.117 139.384 537.365 139.384C536.613 139.259 536.237 139.071 536.237 138.82C536.237 138.319 535.422 137.692 533.793 136.94C527.902 134.433 524.832 132.616 524.581 131.488C523.578 128.731 525.834 125.911 531.349 123.028C536.488 120.271 547.078 117.639 563.121 115.132L578.161 112.688L585.869 111.56L586.809 103.664C587.436 98.2747 588.062 95.3293 588.689 94.828C589.441 94.2013 589.817 93.2613 589.817 92.008C589.817 91.0053 590.193 90.3787 590.945 90.128C591.822 89.752 593.389 89.6267 595.645 89.752C597.776 89.8773 599.092 89.6893 599.593 89.188C600.22 88.6867 601.661 86.2427 603.917 81.856L609.557 71.14ZM608.805 152.168C604.544 151.541 598.778 151.541 591.509 152.168C588.125 152.419 585.054 153.171 582.297 154.424C579.54 155.677 578.224 156.931 578.349 158.184L579.665 166.456C581.169 175.981 582.924 181.935 584.929 184.316C585.18 184.441 586.558 184.065 589.065 183.188C591.572 182.311 593.013 181.684 593.389 181.308C593.765 180.807 595.081 180.556 597.337 180.556C598.841 180.556 599.844 180.368 600.345 179.992C600.846 179.491 601.724 177.924 602.977 175.292C604.732 171.908 605.922 169.84 606.549 169.088C607.301 168.211 608.805 165.453 611.061 160.816C613.317 156.053 614.382 153.547 614.257 153.296C614.006 153.045 612.189 152.669 608.805 152.168Z" fill="#922121" fill-opacity="0.9"/>
<path d="M304.459 164.532C308.344 163.153 310.976 162.401 312.355 162.276C313.859 162.151 315.112 162.589 316.115 163.592C317.243 164.469 317.619 166.287 317.243 169.044C316.992 170.673 316.679 171.801 316.303 172.428C316.052 172.929 315.488 173.305 314.611 173.556L306.527 175.812C302.266 177.191 299.383 177.943 297.879 178.068C296.375 178.193 295.184 177.817 294.307 176.94C293.555 175.937 293.054 174.496 292.803 172.616C292.678 170.987 293.304 169.671 294.683 168.668C296.062 167.665 299.32 166.287 304.459 164.532ZM391.503 140.844C391.503 138.964 391.816 137.711 392.443 137.084C393.07 136.457 394.26 136.207 396.015 136.332C397.895 136.332 401.404 136.833 406.543 137.836C412.183 138.839 415.88 139.716 417.635 140.468C419.515 141.22 421.082 142.473 422.335 144.228C423.588 145.983 424.278 147.549 424.403 148.928C424.654 150.181 424.34 151.873 423.463 154.004C422.084 158.14 419.891 160.897 416.883 162.276L414.063 163.78L411.243 161.524C409.363 159.769 408.172 158.892 407.671 158.892C407.295 158.892 404.475 156.323 399.211 151.184C395.952 147.8 393.822 145.544 392.819 144.416C391.942 143.288 391.503 142.097 391.503 140.844ZM313.671 107.756C313.922 105.876 314.548 104.372 315.551 103.244C316.679 102.116 317.494 101.552 317.995 101.552C318.872 101.552 319.499 102.304 319.875 103.808C320.251 105.312 320.314 107.192 320.063 109.448C319.687 112.08 319.687 113.647 320.063 114.148C320.564 114.524 322.82 115.151 326.831 116.028C333.85 117.657 338.988 119.412 342.247 121.292C344.628 122.921 344.691 125.804 342.435 129.94C341.558 131.695 340.743 134.515 339.991 138.4C339.364 141.659 338.988 146.296 338.863 152.312C338.863 158.203 339.176 161.336 339.803 161.712C340.555 162.088 342.435 160.396 345.443 156.636C348.576 152.751 352.211 147.675 356.347 141.408C359.355 136.896 361.11 134.515 361.611 134.264C362.112 133.888 363.178 134.139 364.807 135.016C366.436 135.893 367.627 136.896 368.379 138.024C369.256 139.528 369.695 140.907 369.695 142.16C369.695 143.288 368.63 145.419 366.499 148.552C364.494 151.56 362.927 153.503 361.799 154.38C360.922 155.132 359.794 156.135 358.415 157.388C357.036 158.516 355.156 159.895 352.775 161.524C350.394 163.153 348.827 164.344 348.075 165.096C347.448 165.723 345.882 166.6 343.375 167.728L339.803 169.42V174.872C339.803 178.381 340.054 181.076 340.555 182.956C341.056 184.836 341.495 188.408 341.871 193.672C342.247 199.813 342.748 202.132 343.375 200.628C343.751 200.252 344.064 199.5 344.315 198.372C344.816 195.991 345.568 193.86 346.571 191.98C347.699 190.1 349.704 187.593 352.587 184.46C358.227 178.444 360.796 174.621 360.295 172.992C359.919 172.24 360.044 171.175 360.671 169.796C361.298 168.417 362.175 167.791 363.303 167.916C364.431 168.041 365.496 167.164 366.499 165.284C368.254 162.276 370.259 159.017 372.515 155.508C374.771 151.999 376.15 150.181 376.651 150.056C377.403 149.931 378.343 150.62 379.471 152.124C380.724 153.503 381.664 155.007 382.291 156.636C383.294 159.393 382.73 161.963 380.599 164.344C376.839 168.605 374.708 171.425 374.207 172.804C373.831 173.681 373.392 174.12 372.891 174.12C371.136 174.12 371.575 175.875 374.207 179.384C374.834 180.011 375.46 180.763 376.087 181.64C378.719 184.397 380.035 186.027 380.035 186.528C380.286 187.405 380.912 187.468 381.915 186.716C382.416 186.465 382.73 185.964 382.855 185.212C384.234 181.076 384.923 178.632 384.923 177.88C385.048 177.003 384.61 176.376 383.607 176C381.852 175.624 380.912 174.183 380.787 171.676C380.787 169.044 381.664 167.289 383.419 166.412C384.798 165.66 386.866 165.284 389.623 165.284C392.38 165.284 394.072 165.66 394.699 166.412C395.326 167.164 396.328 167.728 397.707 168.104C399.211 168.48 400.464 169.107 401.467 169.984C401.968 170.36 402.344 170.924 402.595 171.676C402.846 172.428 402.908 173.055 402.783 173.556C402.658 173.932 402.344 174.12 401.843 174.12C401.467 174.12 401.279 174.559 401.279 175.436C401.279 176.188 399.65 179.635 396.391 185.776L391.691 195.176L396.015 198.748C402.282 203.385 409.488 207.459 417.635 210.968C421.896 212.848 424.779 214.352 426.283 215.48C427.787 216.483 428.79 216.984 429.291 216.984C429.792 216.984 430.356 217.423 430.983 218.3C431.61 219.052 432.55 219.428 433.803 219.428C435.056 219.428 436.247 220.055 437.375 221.308C438.628 222.436 439.255 223.689 439.255 225.068C439.255 226.447 438.691 227.575 437.563 228.452C436.435 229.455 435.119 229.956 433.615 229.956C432.236 229.956 430.67 230.457 428.915 231.46C427.16 232.588 425.594 233.152 424.215 233.152C422.962 233.152 422.022 233.528 421.395 234.28C420.142 235.784 417.447 235.533 413.311 233.528C406.292 230.52 399.524 225.945 393.007 219.804C388.871 216.044 386.302 213.725 385.299 212.848L382.291 210.592C381.664 210.091 381.1 209.903 380.599 210.028C380.223 210.153 379.408 210.905 378.155 212.284C376.4 214.289 375.147 215.793 374.395 216.796C373.894 217.673 372.139 219.115 369.131 221.12C366.123 223 363.867 224.191 362.363 224.692C361.11 225.068 358.791 226.008 355.407 227.512C348.764 230.771 344.252 232.4 341.871 232.4C341.244 232.4 340.931 232.275 340.931 232.024C340.931 231.773 341.432 231.209 342.435 230.332C343.688 228.828 347.95 225.507 355.219 220.368C365.872 212.472 372.076 206.644 373.831 202.884C374.207 202.007 373.831 200.628 372.703 198.748C371.7 196.743 369.131 193.171 364.995 188.032L363.491 186.152L360.107 189.912C351.208 199.437 345.756 203.824 343.751 203.072C343.25 202.947 342.748 203.323 342.247 204.2C341.871 204.952 341.495 206.143 341.119 207.772C340.743 209.401 340.43 211.469 340.179 213.976C339.928 216.483 339.114 218.739 337.735 220.744C336.482 222.624 335.855 224.065 335.855 225.068C335.855 226.697 335.291 228.327 334.163 229.956C333.035 231.585 331.907 232.525 330.779 232.776C329.4 233.027 327.959 233.904 326.455 235.408C325.452 236.411 324.763 236.912 324.387 236.912C324.136 237.037 323.572 236.724 322.695 235.972C321.692 234.969 321.191 234.155 321.191 233.528C321.191 232.901 320.376 231.648 318.747 229.768C317.243 227.888 316.491 226.572 316.491 225.82C316.491 225.068 315.3 224.003 312.919 222.624C308.156 220.117 303.895 216.608 300.135 212.096C296.751 207.96 295.999 205.955 297.879 206.08C298.506 206.08 299.508 206.456 300.887 207.208C303.143 208.336 306.088 209.464 309.723 210.592C313.483 211.595 316.178 212.096 317.807 212.096C322.068 212.096 324.638 210.592 325.515 207.584C326.518 204.451 326.956 195.615 326.831 181.076C326.831 166.287 326.706 158.641 326.455 158.14C326.204 157.513 324.575 157.075 321.567 156.824C318.434 156.448 316.115 155.383 314.611 153.628C313.232 151.748 312.167 148.615 311.415 144.228C310.788 139.841 310.663 135.705 311.039 131.82C311.29 126.807 310.914 124.3 309.911 124.3C309.66 124.3 309.347 124.363 308.971 124.488C308.47 124.739 307.655 126.681 306.527 130.316C305.524 133.951 305.023 136.645 305.023 138.4C305.023 139.403 304.208 142.348 302.579 147.236C300.95 151.999 299.759 154.944 299.007 156.072C298.255 157.075 297.879 158.14 297.879 159.268C297.879 160.271 297.252 161.712 295.999 163.592C294.871 165.347 293.618 166.161 292.239 166.036C291.362 165.911 290.798 165.723 290.547 165.472C290.296 165.096 290.171 164.344 290.171 163.216C290.422 161.587 290.986 159.331 291.863 156.448C292.991 151.811 294.056 146.233 295.059 139.716C296.187 133.073 296.626 129.627 296.375 129.376C295.748 129.125 294.62 129.439 292.991 130.316C291.362 131.193 290.547 131.883 290.547 132.384C290.547 133.261 290.108 133.888 289.231 134.264C288.479 134.515 288.228 134.891 288.479 135.392C288.73 135.768 288.479 137.961 287.727 141.972C286.975 145.983 286.599 150.056 286.599 154.192C286.599 158.203 286.474 165.284 286.223 175.436C286.098 185.463 286.223 190.601 286.599 190.852C286.975 191.103 287.852 190.664 289.231 189.536C290.61 188.283 292.678 187.217 295.435 186.34C298.318 185.463 301.702 184.147 305.587 182.392C312.982 178.757 317.744 178.193 319.875 180.7C320.878 181.828 321.066 183.395 320.439 185.4C319.938 187.28 319.624 188.784 319.499 189.912C319.374 191.04 317.494 191.855 313.859 192.356C309.472 193.108 303.958 194.988 297.315 197.996L293.179 200.064L290.171 198.372L287.163 196.68L287.351 204.576C287.602 208.712 287.602 211.281 287.351 212.284C287.1 213.161 286.348 214.415 285.095 216.044C283.34 218.3 282.087 219.428 281.335 219.428C280.332 219.428 279.204 218.488 277.951 216.608C276.698 214.728 275.946 212.785 275.695 210.78C275.57 208.9 275.632 205.328 275.883 200.064C276.259 194.8 276.698 191.792 277.199 191.04C277.45 190.664 277.826 186.779 278.327 179.384C278.954 171.864 279.392 167.289 279.643 165.66C279.894 164.031 280.207 159.331 280.583 151.56C281.46 140.405 282.964 133.825 285.095 131.82C285.471 131.319 285.659 130.379 285.659 129C285.659 126.368 288.416 123.673 293.931 120.916L298.067 118.848L299.195 113.208C300.072 106.941 301.012 103.808 302.015 103.808C302.767 103.808 303.707 104.497 304.835 105.876C305.963 107.129 306.527 108.132 306.527 108.884C306.527 110.137 307.028 111.516 308.031 113.02C309.034 114.524 309.848 115.151 310.475 114.9C311.854 114.775 312.919 112.393 313.671 107.756ZM325.515 124.864C321.755 123.485 319.687 123.235 319.311 124.112C318.81 124.739 318.559 127.12 318.559 131.256C318.559 135.392 318.747 138.024 319.123 139.152C319.499 140.28 320.815 141.157 323.071 141.784C325.327 142.411 326.455 142.661 326.455 142.536C326.58 142.285 326.768 139.403 327.019 133.888C327.27 129.877 327.332 127.496 327.207 126.744C327.082 125.867 326.518 125.24 325.515 124.864ZM393.007 98.544C393.759 97.6667 394.824 97.4787 396.203 97.98C398.208 98.356 400.652 99.4213 403.535 101.176C406.543 102.805 408.736 104.372 410.115 105.876C411.494 107.129 412.371 108.195 412.747 109.072C413.123 109.824 413.311 111.015 413.311 112.644C413.311 116.153 412.183 119.036 409.927 121.292C407.796 123.423 405.478 124.112 402.971 123.36C401.843 122.859 400.59 122.044 399.211 120.916C397.832 119.663 397.143 118.785 397.143 118.284C397.143 117.783 396.328 115.965 394.699 112.832C393.446 109.949 392.631 107.067 392.255 104.184C391.879 101.301 392.13 99.4213 393.007 98.544ZM330.779 90.836C339.051 89.9587 343.876 89.5827 345.255 89.708C346.634 89.708 347.762 90.1467 348.639 91.024C350.018 92.2773 350.519 94.0947 350.143 96.476C349.892 98.732 349.015 100.675 347.511 102.304C346.007 103.933 344.628 104.685 343.375 104.56C342.122 104.435 339.991 103.244 336.983 100.988C335.479 99.9853 331.531 99.4213 325.139 99.296C318.872 99.1707 313.483 99.5467 308.971 100.424C305.086 101.301 300.511 102.053 295.247 102.68C287.852 103.808 284.155 105.061 284.155 106.44C284.155 106.816 283.403 107.192 281.899 107.568C280.395 107.819 279.267 107.819 278.515 107.568C277.638 107.317 276.886 106.377 276.259 104.748C275.883 103.62 275.758 102.868 275.883 102.492C276.008 101.991 276.51 101.427 277.387 100.8C280.27 98.4187 285.158 96.6013 292.051 95.348C298.944 94.0947 311.854 92.5907 330.779 90.836ZM379.095 77.3C379.596 76.548 380.098 76.2347 380.599 76.36C381.1 76.36 382.166 76.8613 383.795 77.864C385.675 78.8667 387.179 80.1827 388.307 81.812C389.56 83.4413 389.936 84.82 389.435 85.948C389.184 86.8253 385.926 90.46 379.659 96.852C373.518 103.244 370.447 106.879 370.447 107.756C370.447 108.508 372.766 108.696 377.403 108.32C382.166 107.944 384.986 107.693 385.863 107.568C386.364 107.568 386.74 107.881 386.991 108.508C387.367 109.009 387.367 109.761 386.991 110.764C386.74 111.641 386.239 112.519 385.487 113.396C384.108 115.025 382.542 116.216 380.787 116.968C379.032 117.72 376.964 118.848 374.583 120.352C372.202 121.731 370.572 122.42 369.695 122.42C368.943 122.42 367.063 123.109 364.055 124.488C361.172 125.867 359.167 126.493 358.039 126.368C356.41 126.243 355.282 124.237 354.655 120.352C354.028 116.467 354.279 113.145 355.407 110.388C356.284 108.508 358.102 106.189 360.859 103.432C362.614 101.677 364.995 98.7947 368.003 94.784C371.136 90.648 373.518 87.2013 375.147 84.444C375.648 83.316 376.212 82.4387 376.839 81.812C377.466 81.1853 377.779 80.496 377.779 79.744C377.779 78.992 378.218 78.1773 379.095 77.3Z" fill="#922121" fill-opacity="0.9"/>
<path d="M1034.78 234.324C1035.28 233.196 1035.78 232.569 1036.28 232.444C1036.78 232.319 1037.72 232.632 1039.1 233.384C1041.98 234.763 1043.99 237.269 1045.12 240.904C1045.87 243.411 1045.93 245.228 1045.3 246.356C1044.8 247.359 1044.74 247.985 1045.12 248.236C1045.49 248.487 1047.75 247.86 1051.88 246.356C1058.9 243.849 1063.73 242.471 1066.36 242.22C1069.12 241.844 1071.56 242.408 1073.69 243.912C1075.45 245.291 1076.95 246.669 1078.2 248.048L1079.9 250.116L1078.2 252.184C1077.58 253.187 1076.82 253.813 1075.95 254.064C1075.07 254.315 1073.19 254.565 1070.31 254.816C1065.92 255.192 1062.72 255.631 1060.72 256.132C1056.33 257.511 1052.13 257.072 1048.12 254.816C1046.49 253.813 1045.49 253.312 1045.12 253.312C1044.86 253.312 1044.74 253.876 1044.74 255.004C1044.74 256.132 1044.43 257.949 1043.8 260.456C1043.42 261.835 1043.11 263.276 1042.86 264.78C1042.61 266.284 1042.48 267.6 1042.48 268.728C1042.61 269.731 1042.86 270.232 1043.24 270.232C1043.49 270.232 1044.49 269.981 1046.24 269.48C1048.12 268.979 1051.76 268.415 1057.15 267.788C1062.54 267.161 1065.98 266.597 1067.49 266.096C1068.99 265.595 1070.06 265.657 1070.68 266.284C1071.44 266.785 1073.69 267.287 1077.45 267.788C1081.34 268.289 1083.66 268.728 1084.41 269.104C1085.28 269.355 1086.22 270.42 1087.23 272.3C1088.36 274.055 1088.92 275.559 1088.92 276.812C1088.92 277.94 1088.48 279.068 1087.6 280.196C1086.85 281.324 1086.1 281.888 1085.35 281.888C1084.22 281.888 1082.46 283.956 1080.08 288.092C1078.33 291.225 1077.33 293.231 1077.08 294.108C1076.82 294.985 1077.08 296.427 1077.83 298.432C1078.45 300.061 1078.7 301.127 1078.58 301.628C1078.58 302.129 1078.2 302.819 1077.45 303.696C1076.2 304.949 1074.38 305.576 1072 305.576C1069.62 305.576 1066.61 306.14 1062.98 307.268C1059.34 308.396 1056.52 309.148 1054.52 309.524C1052.64 309.775 1051.7 310.339 1051.7 311.216C1051.7 313.597 1050.44 313.347 1047.94 310.464C1047.43 309.837 1046.93 309.211 1046.43 308.584C1044.8 306.453 1043.36 303.947 1042.11 301.064C1040.85 298.056 1040.23 295.737 1040.23 294.108C1040.23 292.729 1039.85 291.539 1039.1 290.536C1038.72 290.035 1038.41 289.847 1038.16 289.972C1037.91 290.097 1037.41 290.849 1036.66 292.228L1034.21 297.492C1033.21 299.497 1031.14 302.568 1028.01 306.704C1024.87 310.715 1022.56 313.409 1021.05 314.788C1018.8 317.044 1016.04 319.175 1012.78 321.18C1009.65 323.185 1007.33 324.313 1005.82 324.564C1002.94 325.191 1001.5 324.815 1001.5 323.436C1001.5 323.185 1001.62 322.809 1001.88 322.308L1007.52 314.412L1015.6 302.756C1017.86 299.247 1019.11 297.116 1019.36 296.364C1019.74 295.612 1020.93 293.544 1022.93 290.16C1025.81 284.771 1028.13 277.94 1029.89 269.668L1032.14 257.448C1032.77 253.813 1033.21 249.364 1033.46 244.1C1033.84 238.836 1034.27 235.577 1034.78 234.324ZM1064.48 276.248C1063.98 275.496 1061.91 275.433 1058.28 276.06C1054.77 276.687 1051.38 277.689 1048.12 279.068C1046.74 279.569 1045.87 280.008 1045.49 280.384C1045.24 280.76 1045.18 281.324 1045.3 282.076C1045.55 283.204 1045.99 285.585 1046.62 289.22C1047.75 294.985 1048.88 297.868 1050 297.868C1050.5 297.868 1052.38 297.241 1055.64 295.988C1057.77 295.236 1059.22 294.609 1059.97 294.108C1060.72 293.481 1061.28 292.667 1061.66 291.664C1062.29 290.285 1062.98 287.465 1063.73 283.204C1064.48 278.943 1064.73 276.624 1064.48 276.248ZM1109.98 180.18C1113.11 179.804 1116.37 180.243 1119.75 181.496C1123.14 182.624 1125.58 184.191 1127.08 186.196C1129.09 188.953 1129.28 191.397 1127.65 193.528C1126.27 195.784 1124.14 197.413 1121.26 198.416C1119.5 198.792 1118.18 198.855 1117.31 198.604C1116.43 198.228 1114.99 197.163 1112.98 195.408C1111.98 194.28 1110.54 193.152 1108.66 192.024C1106.9 190.896 1105.71 189.329 1105.09 187.324C1104.71 185.945 1104.52 185.005 1104.52 184.504C1104.65 184.003 1105.09 183.313 1105.84 182.436C1107.09 181.183 1108.47 180.431 1109.98 180.18ZM1078.39 176.044C1079.52 175.543 1080.9 175.856 1082.53 176.984C1085.79 178.864 1087.73 180.431 1088.36 181.684C1089.11 182.937 1089.61 185.695 1089.86 189.956C1090.36 195.596 1090.74 199.043 1090.99 200.296C1091.36 201.424 1092.18 201.988 1093.43 201.988C1094.81 201.988 1096.44 202.176 1098.32 202.552C1100.2 202.803 1101.33 202.615 1101.7 201.988C1102.08 200.985 1103.83 200.547 1106.97 200.672C1110.23 200.672 1112.48 201.111 1113.74 201.988C1114.49 202.615 1114.99 203.429 1115.24 204.432C1115.49 205.309 1115.62 207.189 1115.62 210.072C1115.62 213.08 1115.49 215.023 1115.24 215.9C1114.99 216.777 1114.49 217.529 1113.74 218.156C1112.48 219.284 1111.42 219.848 1110.54 219.848C1109.66 219.723 1107.72 218.971 1104.71 217.592C1101.2 216.088 1098.7 215.273 1097.19 215.148L1094.75 214.96L1094.94 220.224C1095.06 223.859 1095.44 226.616 1096.06 228.496C1096.82 230.251 1097.38 232.131 1097.76 234.136C1098.13 236.016 1098.51 237.457 1098.88 238.46C1099.38 239.337 1100.45 242.032 1102.08 246.544C1104.08 252.184 1105.46 255.004 1106.22 255.004C1106.47 255.004 1106.97 254.628 1107.72 253.876C1108.47 252.748 1108.85 251.683 1108.85 250.68C1108.85 250.179 1109.29 248.925 1110.16 246.92C1111.17 244.789 1112.04 243.035 1112.8 241.656C1113.3 240.779 1113.67 239.901 1113.92 239.024C1114.42 237.395 1116.49 237.771 1120.13 240.152C1122.13 241.405 1123.45 242.784 1124.08 244.288C1124.7 245.667 1125.45 248.925 1126.33 254.064C1126.71 255.443 1126.39 256.696 1125.39 257.824C1124.39 258.952 1123.7 260.143 1123.32 261.396C1123.07 262.524 1121.88 265.219 1119.75 269.48C1118.12 273.115 1117.31 275.559 1117.31 276.812C1117.43 278.065 1118.69 280.008 1121.07 282.64C1122.32 284.019 1122.95 284.959 1122.95 285.46C1122.95 285.961 1124.76 288.217 1128.4 292.228C1132.03 296.113 1135.36 299.309 1138.36 301.816C1142.88 305.701 1146.07 308.271 1147.95 309.524C1149.83 310.777 1151.77 311.78 1153.78 312.532L1157.92 313.848L1159.98 311.028C1161.49 309.399 1162.24 307.205 1162.24 304.448C1162.24 301.189 1162.8 298.808 1163.93 297.304C1165.18 295.675 1166.56 295.299 1168.07 296.176C1168.69 296.677 1169.13 299.623 1169.38 305.012C1169.76 310.401 1170.26 315.665 1170.89 320.804C1171.26 324.439 1171.39 326.757 1171.26 327.76C1171.26 328.888 1170.95 330.141 1170.32 331.52C1169.2 333.651 1167.82 335.468 1166.19 336.972C1165.18 338.1 1164.24 338.727 1163.37 338.852C1162.62 339.103 1161.3 339.228 1159.42 339.228C1155.66 339.228 1151.15 338.163 1145.88 336.032C1140.74 333.901 1136.36 331.269 1132.72 328.136C1130.72 326.507 1126.71 322.308 1120.69 315.54C1114.8 308.772 1111.73 304.887 1111.48 303.884C1111.1 303.257 1110.79 302.881 1110.54 302.756C1110.29 302.505 1109.35 301.252 1107.72 298.996C1106.22 296.74 1105.28 295.612 1104.9 295.612C1104.65 295.612 1103.14 297.429 1100.39 301.064C1097.76 304.699 1095.25 307.519 1092.87 309.524C1090.49 311.404 1088.61 312.971 1087.23 314.224C1080.21 320.867 1074.38 324.188 1069.74 324.188C1067.61 324.188 1066.55 324 1066.55 323.624C1066.55 323.248 1067.49 322.183 1069.37 320.428C1071.25 318.548 1073.19 316.355 1075.2 313.848C1077.33 311.341 1080.15 308.083 1083.66 304.072C1087.16 300.061 1088.92 297.931 1088.92 297.68C1088.92 297.304 1089.61 296.176 1090.99 294.296C1092.49 292.416 1094.06 289.721 1095.69 286.212C1096.94 283.58 1097.63 281.951 1097.76 281.324C1098.01 280.572 1097.76 279.444 1097 277.94C1096 275.559 1094.37 271.36 1092.12 265.344C1091.36 263.088 1090.61 261.271 1089.86 259.892C1089.23 258.388 1088.92 257.26 1088.92 256.508C1088.92 255.631 1088.29 253.375 1087.04 249.74C1085.79 246.105 1084.47 241.343 1083.09 235.452C1081.84 229.561 1080.77 225.3 1079.9 222.668C1079.14 220.036 1078.77 218.281 1078.77 217.404C1078.77 216.401 1078.2 216.088 1077.08 216.464C1075.95 216.84 1073.06 217.655 1068.43 218.908C1063.79 220.161 1060.59 221.665 1058.84 223.42C1057.21 225.049 1055.77 225.676 1054.52 225.3C1052.89 224.799 1050.69 223.608 1047.94 221.728C1045.3 219.848 1043.99 218.595 1043.99 217.968C1043.99 217.341 1043.67 216.903 1043.05 216.652C1042.55 216.401 1042.42 215.524 1042.67 214.02C1043.17 212.516 1044.43 211.2 1046.43 210.072C1048.56 208.944 1050.88 208.317 1053.39 208.192C1055.64 208.192 1058.02 207.941 1060.53 207.44C1063.16 206.939 1066.55 206.437 1070.68 205.936L1076.7 204.808L1076.14 201.048C1075.88 198.416 1075.63 194.092 1075.38 188.076C1075.01 183.564 1075.01 180.681 1075.38 179.428C1075.76 178.049 1076.76 176.921 1078.39 176.044Z" fill="#922121" fill-opacity="0.9"/>
</svg>
