<svg width="137" height="85" viewBox="0 0 137 85" fill="none" xmlns="http://www.w3.org/2000/svg">
<path fill-rule="evenodd" clip-rule="evenodd" d="M6.40371 47.8313C-3.59632 66.8312 0.82731 46.5373 1.90371 43.8313C6.57038 27.1646 33.4037 -7.16852 78.9037 1.33135C124.404 9.83122 135.494 42.3312 136.904 57.8312C138.313 73.3312 113.904 98.8312 89.9037 74.3313C85.4983 69.8341 81.3924 62.6095 77.1783 55.1944C70.6768 43.7545 63.9178 31.8614 55.4037 28.8312C45.9552 24.6311 34.0842 31.9024 29.4123 34.764L29.4123 34.7641C28.2268 35.4902 27.5049 35.9324 27.4037 35.8312C27.2242 35.6517 28.5259 34.5064 30.2687 32.9728C33.3822 30.2331 37.9037 26.2546 37.9037 24.3312C37.9038 21.3312 16.4037 28.8314 6.40371 47.8313ZM7.77091 39.2684C7.2724 40.0349 7.00309 38.1842 7.99999 35.5015C8.9969 32.8187 17.2434 15.1235 47.6544 13.5904C78.0653 12.0574 103.491 30.8368 102.993 31.6033C102.9 31.7455 102.018 31.2411 100.442 30.3399C93.5235 26.3842 73.2344 14.7836 47.6544 16.6565C18.0562 18.8234 9.26667 36.3062 7.93467 38.9556C7.85321 39.1176 7.79964 39.2242 7.77091 39.2684ZM111.897 38.4728C112.5 38.5015 105.617 33.5329 105.059 33.5172C104.5 33.5015 108 36.0015 108 36.0015C108 36.0015 111.294 38.4442 111.897 38.4728ZM40.8757 26.3726C42.9386 25.7766 45.905 24.9196 48.5216 24.633C50.9457 24.3675 54.3961 24.6444 57.0809 24.8599C59.34 25.0413 61.057 25.1791 61.1645 24.9136C61.3997 24.3326 53.3132 22.6071 48.5216 23.133C44.1518 23.6126 38.0215 26.633 38.2987 26.9519C38.4134 27.0839 39.4194 26.7933 40.8757 26.3726Z" fill="#A2D794"/>
</svg>
