<svg width="134" height="95" viewBox="0 0 134 95" fill="none" xmlns="http://www.w3.org/2000/svg">
<path fill-rule="evenodd" clip-rule="evenodd" d="M125.834 59.1735C139.725 42.8017 130.995 61.6487 129.357 64.0561C121.179 79.3098 87.5237 106.989 44.9593 88.8019C2.39498 70.6147 -1.3652 36.4811 0.627974 21.0453C2.62115 5.60942 31.9903 -13.9747 50.0907 15.1564C53.4132 20.5036 55.8505 28.448 58.352 36.6018C62.2112 49.1814 66.2234 62.2595 73.8752 67.0679C82.1848 73.2214 95.3525 68.7045 100.535 66.9268L100.535 66.9268C101.85 66.4757 102.651 66.2011 102.727 66.3218C102.863 66.536 101.344 67.371 99.3095 68.489C95.6749 70.4864 90.3966 73.387 89.9785 75.2644C89.3264 78.1926 111.943 75.5453 125.834 59.1735ZM122.638 67.2345C123.291 66.5947 123.152 68.4596 121.595 70.8615C120.039 73.2635 108.143 88.743 78.1263 83.6288C48.1092 78.5146 27.3733 54.6572 28.0266 54.0174C28.1479 53.8987 28.8993 54.5828 30.242 55.8051C36.135 61.1701 53.4173 76.9036 78.7928 80.6361C108.154 84.9548 120.534 69.8007 122.41 67.5042C122.525 67.3637 122.6 67.2714 122.638 67.2345ZM20.8287 45.3766C20.2466 45.2177 25.8842 51.5634 26.4262 51.7002C26.9681 51.837 24.0956 48.6361 24.0956 48.6361C24.0956 48.6361 21.4107 45.5356 20.8287 45.3766ZM87.5214 72.6258C85.3783 72.7591 82.2965 72.9508 79.6801 72.6617C77.2563 72.394 73.9486 71.3736 71.3748 70.5796C69.2092 69.9116 67.5632 69.4038 67.4006 69.6396C67.0447 70.1556 74.5627 73.5976 79.3541 74.1259C83.7237 74.6076 90.3639 72.992 90.1627 72.6205C90.0794 72.4667 89.0343 72.5317 87.5214 72.6258Z" fill="#EAB144"/>
</svg>
