<svg width="280" height="259" viewBox="0 0 280 259" fill="none" xmlns="http://www.w3.org/2000/svg">
<path fill-rule="evenodd" clip-rule="evenodd" d="M144.392 0C219.397 0 280 61.2561 280 136.572C280 208.083 215.607 259 144.392 259C70.5906 259 0 210.681 0 136.572C0 58.7854 66.9277 0 144.392 0Z" fill="#922121"/>
<path d="M200.379 104.698L193.732 58.9904L157.472 87.6004L200.379 104.698ZM203.169 158.299C204.077 156.284 203.18 153.916 201.165 153.009C199.151 152.101 196.783 152.998 195.875 155.012L203.169 158.299ZM116.22 72.6837C136.66 64.2698 159.019 67.6461 175.744 79.6828L180.417 73.1897C161.543 59.6059 136.277 55.7764 113.175 65.2859L116.22 72.6837ZM163.144 186.681C131.665 199.638 95.6412 184.624 82.6835 153.144L75.2857 156.189C89.9252 191.755 130.624 208.718 166.189 194.079L163.144 186.681ZM82.6835 153.144C69.7258 121.665 84.7405 85.6415 116.22 72.6837L113.175 65.2859C77.6097 79.9255 60.6462 120.624 75.2857 156.189L82.6835 153.144ZM195.875 155.012C189.634 168.865 178.3 180.442 163.144 186.681L166.189 194.079C183.308 187.032 196.122 173.94 203.169 158.299L195.875 155.012Z" fill="#FCF9F2"/>
</svg>
