<svg width="120" height="109" viewBox="0 0 120 109" fill="none" xmlns="http://www.w3.org/2000/svg">
<path fill-rule="evenodd" clip-rule="evenodd" d="M11.9182 10.7671C17.9819 -9.82971 7.01638 7.81016 5.90322 10.5013C-2.36091 25.7085 -7.03205 69.0326 31.5295 94.6353C70.0911 120.238 100.69 104.651 112.5 94.5138C124.31 84.3771 124.566 49.0781 90.2801 49.9322C83.9866 50.089 76.0078 52.411 67.8186 54.7943C55.1845 58.4711 42.0498 62.2936 33.831 58.5355C24.1269 54.9656 20.6771 41.4789 19.3194 36.1712L19.3194 36.1711C18.9749 34.8243 18.7651 34.0041 18.622 34.0062C18.3683 34.0099 18.504 35.7384 18.6858 38.0528C19.0106 42.1873 19.4822 48.1915 18.1421 49.5713C16.052 51.7234 5.85437 31.3638 11.9182 10.7671ZM6.93305 17.8623C7.10947 16.9651 5.62694 18.105 4.47297 20.7241C3.31899 23.3431 -3.09376 41.7823 17.6536 64.0696C38.401 86.3568 69.7243 90.5999 69.9007 89.7026C69.9334 89.5361 68.9491 89.2833 67.1905 88.8317C59.4716 86.8492 36.835 81.0354 19.7898 61.8701C0.06717 39.6944 5.94229 21.0293 6.83263 18.2007C6.88708 18.0277 6.92289 17.914 6.93305 17.8623ZM81.0741 90.9783C81.5264 91.3777 73.1279 90.147 72.7161 89.769C72.3043 89.3911 76.5566 90.0359 76.5566 90.0359C76.5566 90.0359 80.6218 90.579 81.0741 90.9783ZM21.6963 50.1775C22.7609 52.0422 24.2918 54.7237 25.9692 56.7523C27.5232 58.6317 30.1913 60.837 32.2674 62.5529C34.0143 63.9967 35.342 65.0941 35.2342 65.3594C34.9981 65.9401 27.995 61.544 24.9241 57.8284C22.1236 54.4398 19.8303 48.0021 20.2514 47.9665C20.4256 47.9517 20.9448 48.8611 21.6963 50.1775Z" fill="#EFD340"/>
</svg>
