<svg width="54" height="54" viewBox="0 0 54 54" fill="none" xmlns="http://www.w3.org/2000/svg">
<g filter="url(#filter0_d)">
<circle cx="27" cy="25" r="25" fill="#E6BF9B"/>
<path d="M7.3999 24.0586H8.94824C9.24219 24.0586 9.46777 23.9937 9.625 23.8638C9.78906 23.7271 9.90869 23.5767 9.98389 23.4126C10.0659 23.2212 10.1138 23.0024 10.1274 22.7563V19.1367C10.1274 18.7197 10.2061 18.3335 10.3633 17.978C10.5205 17.6157 10.7324 17.3047 10.999 17.0449C11.2725 16.7783 11.5869 16.5732 11.9424 16.4297C12.3047 16.2793 12.6875 16.2041 13.0908 16.2041H16.0337V19.1367H13.0908V22.8179C13.0908 23.0708 13.0669 23.3032 13.019 23.5151C12.9712 23.7271 12.9062 23.9219 12.8242 24.0996C12.7422 24.2705 12.6499 24.4277 12.5474 24.5713C12.4448 24.708 12.3389 24.8276 12.2295 24.9302C11.9766 25.1831 11.6895 25.3813 11.3682 25.5249C11.6895 25.6616 11.9766 25.8633 12.2295 26.1299C12.3389 26.2461 12.4448 26.3794 12.5474 26.5298C12.6499 26.6802 12.7422 26.8545 12.8242 27.0527C12.9062 27.2441 12.9712 27.4629 13.019 27.709C13.0669 27.9482 13.0908 28.2148 13.0908 28.5088V32.1592H16.0337V35.1021H13.0908C12.708 35.1021 12.3354 35.0269 11.9731 34.8765C11.6177 34.7261 11.3032 34.5176 11.0298 34.251C10.7563 33.9912 10.5376 33.6802 10.3735 33.3179C10.2095 32.9624 10.1274 32.5762 10.1274 32.1592V28.5088C10.1343 28.1328 10.0762 27.8423 9.95312 27.6372C9.83691 27.4321 9.70361 27.2817 9.55322 27.186C9.37549 27.0767 9.17383 27.0117 8.94824 26.9912H7.3999V24.0586ZM17.9157 26.847V24.852L27.2397 20.967V23.067C23.1797 24.565 20.7857 25.489 20.0577 25.839C20.3937 26.007 21.1567 26.322 22.3467 26.784C23.5507 27.246 24.6707 27.666 25.7067 28.044L27.2397 28.632V30.732L17.9157 26.847ZM28.3931 21.87V19.875C29.2611 19.371 30.2271 19.119 31.2911 19.119C32.6911 19.119 33.7831 19.469 34.5671 20.169C35.3651 20.855 35.7641 21.723 35.7641 22.773C35.7641 23.529 35.5751 24.194 35.1971 24.768C34.8331 25.328 34.2871 25.755 33.5591 26.049C34.3571 26.245 34.9801 26.616 35.4281 27.162C35.8761 27.708 36.1001 28.394 36.1001 29.22C36.1001 30.354 35.6941 31.292 34.8821 32.034C34.0701 32.762 32.9291 33.126 31.4591 33.126C30.0731 33.126 28.9041 32.888 27.9521 32.412V30.396C28.9881 30.956 30.1221 31.236 31.3541 31.236C32.1801 31.236 32.8241 31.033 33.2861 30.627C33.7621 30.207 34.0001 29.675 34.0001 29.031C34.0001 28.359 33.7411 27.841 33.2231 27.477C32.7051 27.113 31.9281 26.931 30.8921 26.931H30.0521V25.167H30.8921C31.6621 25.167 32.3061 24.978 32.8241 24.6C33.3561 24.208 33.6221 23.676 33.6221 23.004C33.6221 22.332 33.4051 21.828 32.9711 21.492C32.5511 21.156 31.9701 20.988 31.2281 20.988C30.2761 20.988 29.3311 21.282 28.3931 21.87ZM46.4939 26.9912H44.9354C44.7098 27.0117 44.5081 27.0767 44.3304 27.186C44.2552 27.2339 44.18 27.2954 44.1048 27.3706C44.0364 27.439 43.9749 27.5278 43.9202 27.6372C43.8655 27.7397 43.8211 27.8628 43.7869 28.0063C43.7596 28.1499 43.7493 28.3174 43.7562 28.5088V32.1592C43.7562 32.5762 43.6741 32.9624 43.5101 33.3179C43.346 33.6802 43.1272 33.9912 42.8538 34.251C42.5804 34.5176 42.2625 34.7261 41.9002 34.8765C41.5447 35.0269 41.1756 35.1021 40.7928 35.1021H37.8602V32.1592H40.7928V28.5088C40.7928 28.2148 40.8167 27.9482 40.8646 27.709C40.9124 27.4629 40.9773 27.2441 41.0594 27.0527C41.1414 26.8545 41.2337 26.6802 41.3362 26.5298C41.4388 26.3794 41.5447 26.2461 41.6541 26.1299C41.907 25.8633 42.1941 25.6616 42.5154 25.5249C42.1941 25.3813 41.907 25.1831 41.6541 24.9302C41.5447 24.8276 41.4388 24.708 41.3362 24.5713C41.2337 24.4277 41.1414 24.2705 41.0594 24.0996C40.9773 23.9219 40.9124 23.7271 40.8646 23.5151C40.8167 23.3032 40.7928 23.0708 40.7928 22.8179V19.1367H37.8602V16.2041H40.7928C41.1961 16.2041 41.5755 16.2793 41.931 16.4297C42.2933 16.5732 42.6077 16.7783 42.8743 17.0449C43.1478 17.3047 43.3631 17.6157 43.5203 17.978C43.6775 18.3335 43.7562 18.7197 43.7562 19.1367V22.7563C43.7698 23.0024 43.8177 23.2212 43.8997 23.4126C43.9749 23.5767 44.0911 23.7271 44.2483 23.8638C44.4056 23.9937 44.6346 24.0586 44.9354 24.0586H46.4939V26.9912Z" fill="#174B32"/>
</g>
<defs>
<filter id="filter0_d" x="0" y="0" width="54" height="54" filterUnits="userSpaceOnUse" color-interpolation-filters="sRGB">
<feFlood flood-opacity="0" result="BackgroundImageFix"/>
<feColorMatrix in="SourceAlpha" type="matrix" values="0 0 0 0 0 0 0 0 0 0 0 0 0 0 0 0 0 0 127 0" result="hardAlpha"/>
<feOffset dy="2"/>
<feGaussianBlur stdDeviation="1"/>
<feComposite in2="hardAlpha" operator="out"/>
<feColorMatrix type="matrix" values="0 0 0 0 0 0 0 0 0 0 0 0 0 0 0 0 0 0 0.25 0"/>
<feBlend mode="normal" in2="BackgroundImageFix" result="effect1_dropShadow"/>
<feBlend mode="normal" in="SourceGraphic" in2="effect1_dropShadow" result="shape"/>
</filter>
</defs>
</svg>
