<svg width="208" height="211" viewBox="0 0 208 211" fill="none" xmlns="http://www.w3.org/2000/svg">
<path fill-rule="evenodd" clip-rule="evenodd" d="M101.465 1.00273C121.071 0.83203 139.582 8.67324 156.16 19.1253C172.837 29.64 187.61 43.1831 196.362 60.8323C205.28 78.8169 209.244 99.315 205.722 119.073C202.261 138.493 189.899 154.519 176.999 169.458C164.072 184.429 149.974 198.967 131.234 205.337C112.067 211.851 91.0454 211.282 71.7253 205.238C52.613 199.259 36.0296 187.167 23.4396 171.614C11.1239 156.399 3.53608 137.914 1.4799 118.46C-0.527816 99.4635 3.91451 80.6207 11.9923 63.3057C20.0258 46.0857 31.7743 30.9389 47.3794 20.0725C63.3862 8.92639 81.951 1.17264 101.465 1.00273Z" stroke="#922121"/>
</svg>
