<svg width="210" height="218" viewBox="0 0 210 218" fill="none" xmlns="http://www.w3.org/2000/svg">
<path fill-rule="evenodd" clip-rule="evenodd" d="M105.882 1.11225C126.957 0.12232 148.292 5.68324 165.629 17.6757C182.654 29.4522 193.543 47.79 201.151 67.0121C208.476 85.5186 210.327 105.3 208.136 125.076C205.889 145.366 201.494 166.048 188.441 181.77C175.248 197.659 155.735 206.541 135.834 212.16C116.073 217.74 95.3623 218.829 75.4884 213.664C55.2052 208.393 35.3502 199.016 22.2994 182.655C9.48449 166.59 7.54736 145.255 4.69944 124.923C1.86223 104.666 -2.47021 83.5345 5.79414 64.8166C14.1015 46.0012 32.2705 34.1827 49.6456 23.1238C66.9722 12.0958 85.3518 2.07663 105.882 1.11225Z" stroke="#922121"/>
</svg>
