<svg xmlns="http://www.w3.org/2000/svg" viewBox="0 0 270.65 180.26"><defs><style>.cls-1{fill:#b4ccd4;}.cls-2{fill:#f2f2f2;}.cls-3{fill:#e5283a;}.cls-4{fill:#bdccd4;}.cls-5{fill:#e6e6e6;}.cls-6{fill:#b3b3b3;}</style></defs><g id="Layer_2" data-name="Layer 2"><g id="Layer_5" data-name="Layer 5"><polygon class="cls-1" points="263.33 175.35 34.01 180.12 34.01 0.12 263.33 19.1 263.33 175.35"/><polygon class="cls-2" points="269.98 162.66 53.79 165.35 53.79 12.84 269.98 29.39 269.98 162.66"/><path class="cls-3" d="M72.3,25.57l21.83,1.52v6.09l-12.89-.85v5l11,.7v5.73l-11-.66V54.74l-8.94-.47Z"/><path class="cls-3" d="M98.81,27.42l8.62.6V49.2l13.28.76v6.87l-21.9-1.16Z"/><path class="cls-3" d="M141.09,53.36l-9.4-.53-1.32,4.51-8.56-.45L132,29.73l9,.63,10,28.07L142.42,58Zm-1.71-6.06-2.95-10.1L133.5,47Z"/><path class="cls-3" d="M149,30.91l8.48.59,5.85,20L169,32.31l8,.56L167.55,59.3l-8.69-.46Z"/><path class="cls-3" d="M177.43,46.38q0-6.6,3.47-10t9.58-3q6.24.43,9.58,4.23t3.34,10.17a16.8,16.8,0,0,1-1.46,7.53,10.06,10.06,0,0,1-4.22,4.41A12.93,12.93,0,0,1,190.79,61a15.89,15.89,0,0,1-7-1.81,12,12,0,0,1-4.56-4.83A16.67,16.67,0,0,1,177.43,46.38Zm7.83.51c0,2.71.48,4.68,1.42,5.91a5,5,0,0,0,3.85,2,4.34,4.34,0,0,0,3.85-1.51q1.37-1.64,1.36-6.11,0-3.77-1.42-5.58a5.08,5.08,0,0,0-3.86-2,4.31,4.31,0,0,0-3.77,1.53Q185.27,42.8,185.26,46.89Z"/><path class="cls-3" d="M207.59,61.41V35l12.53.88a17.22,17.22,0,0,1,5.26,1,6.26,6.26,0,0,1,2.92,2.58,8.07,8.07,0,0,1,1.11,4.3,7.39,7.39,0,0,1-.85,3.68,6.27,6.27,0,0,1-2.33,2.41,8,8,0,0,1-2.6.88,7.4,7.4,0,0,1,1.93,1.08,8.93,8.93,0,0,1,1.18,1.44,11.47,11.47,0,0,1,1,1.68l3.56,7.75L223,62.23,219,54a6.37,6.37,0,0,0-1.35-2.1,3.12,3.12,0,0,0-1.83-.72l-.67,0V61.81Zm7.57-15.24,3.16.2a10,10,0,0,0,2-.23,1.85,1.85,0,0,0,1.21-.75,2.42,2.42,0,0,0,.47-1.48,2.69,2.69,0,0,0-.74-2,4.49,4.49,0,0,0-2.79-.86l-3.29-.22Z"/><path class="cls-3" d="M232.41,54.12l7-.07a6.55,6.55,0,0,0,.92,2.88,3.94,3.94,0,0,0,3.2,1.75,3.2,3.2,0,0,0,2.38-.67,2.34,2.34,0,0,0,.84-1.81,2.63,2.63,0,0,0-.8-1.84,9.24,9.24,0,0,0-3.7-1.71q-4.77-1.47-6.83-3.56a7.27,7.27,0,0,1-1-8.86,6.59,6.59,0,0,1,3.18-2.58,13.31,13.31,0,0,1,5.78-.61,11.53,11.53,0,0,1,6.81,2.31,8.77,8.77,0,0,1,2.77,6h-6.76A4.53,4.53,0,0,0,245,42.75a3.7,3.7,0,0,0-2.4-1,2.57,2.57,0,0,0-1.9.47,1.74,1.74,0,0,0-.65,1.39,1.62,1.62,0,0,0,.53,1.15A6.16,6.16,0,0,0,243,45.92a29.89,29.89,0,0,1,6.76,2.7,8.06,8.06,0,0,1,3,3,8.2,8.2,0,0,1,.92,3.85A8.41,8.41,0,0,1,252.43,60,7.39,7.39,0,0,1,249,63a12.5,12.5,0,0,1-5.61.78c-4-.21-6.77-1.2-8.32-3A11.14,11.14,0,0,1,232.41,54.12Z"/><path class="cls-3" d="M71.13,88q0-7,4-10.8T86,73.77C90.7,74,94.32,75.38,96.86,78s3.78,6.21,3.78,10.75A17.22,17.22,0,0,1,99,96.83a11.4,11.4,0,0,1-4.79,4.81,15.74,15.74,0,0,1-7.88,1.58,18.61,18.61,0,0,1-8-1.74,12.55,12.55,0,0,1-5.18-5A16.45,16.45,0,0,1,71.13,88Zm8.91.33c0,2.89.54,5,1.62,6.27a5.59,5.59,0,0,0,4.37,2,5.26,5.26,0,0,0,4.38-1.72Q92,93.11,92,88.36c0-2.67-.54-4.65-1.61-5.92a5.76,5.76,0,0,0-4.39-2,5.15,5.15,0,0,0-4.28,1.72C80.58,83.38,80,85.44,80,88.35Z"/><path class="cls-3" d="M105.33,75.05l21,.87v6l-12.4-.47v4.89l10.6.37V92.3L113.92,92v11.44l-8.59-.21Z"/><path class="cls-3" d="M72.24,121.8l23.64.31v6L81.16,128v4.54l13.66.1v5.77l-13.66,0V144H96.3v6.4l-24.06.1Z"/><path class="cls-3" d="M100.87,122.18l11.3.14,4.31,17.07,4.26-16.95,11,.14v27.7l-6.85,0V129.09l-5.31,21.23-6.29,0-5.39-21.41v21.43l-7,0Z"/><path class="cls-3" d="M136,136.47q0-6.76,3.65-10.5c2.42-2.47,5.79-3.68,10.08-3.62s7.73,1.32,10.08,3.78,3.51,5.87,3.51,10.24a17.38,17.38,0,0,1-1.53,7.81,11.3,11.3,0,0,1-4.45,4.76,14.3,14.3,0,0,1-7.29,1.74,16.39,16.39,0,0,1-7.41-1.46,11.33,11.33,0,0,1-4.8-4.69A16,16,0,0,1,136,136.47Zm8.24.07c0,2.78.5,4.77,1.49,6a5.49,5.49,0,0,0,8.11,0c.95-1.18,1.43-3.29,1.43-6.35q0-3.85-1.5-5.64a5,5,0,0,0-4.06-1.82,4.8,4.8,0,0,0-4,1.78Q144.26,132.34,144.26,136.54Z"/><path class="cls-3" d="M164.89,123l24,.32v6.6l-8-.07v20.23l-7.87,0V129.79l-8.12-.08Z"/><path class="cls-3" d="M192.65,123.37l7.7.11V150l-7.7,0Z"/><path class="cls-3" d="M204.86,136.78q0-6.48,3.35-10t9.25-3.48q6,.07,9.26,3.62t3.23,9.82a17.21,17.21,0,0,1-1.41,7.48,10.6,10.6,0,0,1-4.08,4.57,12.77,12.77,0,0,1-6.7,1.66A14.44,14.44,0,0,1,211,149a10.71,10.71,0,0,1-4.4-4.49A15.9,15.9,0,0,1,204.86,136.78Zm7.57.08c0,2.65.45,4.57,1.37,5.73a4.88,4.88,0,0,0,7.44,0q1.31-1.69,1.31-6.09,0-3.69-1.37-5.41a4.62,4.62,0,0,0-3.73-1.74,4.41,4.41,0,0,0-3.65,1.71Q212.43,132.82,212.43,136.86Z"/><path class="cls-3" d="M234,123.91l6.81.09,8.79,14.34V124.12l6.74.09V149.8l-6.74,0-8.74-14.17v14.2l-6.86,0Z"/><polygon class="cls-4" points="34.01 180.26 0 178.35 0 7.58 34.01 0 34.01 180.26"/><polygon class="cls-2" points="53.79 13.33 42.98 8.3 257.55 25.26 270.65 29.95 53.79 13.33"/><polygon class="cls-5" points="53.73 164.75 53.98 13.3 42.57 8.12 42.57 169.33 53.73 164.75"/><polygon class="cls-6" points="270.65 162.22 258.98 166.31 42.98 169.31 53.79 164.84 270.65 162.22"/></g></g></svg>